<svg xmlns="http://www.w3.org/2000/svg" xmlns:xlink="http://www.w3.org/1999/xlink" width="469" height="452" viewBox="0 0 469 452">
  <defs>
    <clipPath id="clip-path">
      <rect width="469" height="452" fill="none"/>
    </clipPath>
  </defs>
  <g id="Scroll_Group_4" data-name="Scroll Group 4" clip-path="url(#clip-path)" style="isolation: isolate">
    <g id="Group_1222" data-name="Group 1222" transform="translate(-1075 -2747)">
      <rect id="Rectangle_158" data-name="Rectangle 158" width="469" height="432" rx="15" transform="translate(1075 2767)" fill="#fff"/>
      <path id="Rectangle_212" data-name="Rectangle 212" d="M15,0H454a15,15,0,0,1,15,15V62a0,0,0,0,1,0,0H0a0,0,0,0,1,0,0V15A15,15,0,0,1,15,0Z" transform="translate(1075 2747)" fill="#e4e4e4"/>
      <g id="Group_1103" data-name="Group 1103" transform="translate(-195.347 2508.235)">
        <ellipse id="Ellipse_38" data-name="Ellipse 38" cx="4.173" cy="4.173" rx="4.173" ry="4.173" transform="translate(1291.347 265.45)" fill="#c2c2c2"/>
        <ellipse id="Ellipse_39" data-name="Ellipse 39" cx="4.173" cy="4.173" rx="4.173" ry="4.173" transform="translate(1303.404 265.45)" fill="#c2c2c2"/>
        <ellipse id="Ellipse_40" data-name="Ellipse 40" cx="4.173" cy="4.173" rx="4.173" ry="4.173" transform="translate(1315.462 265.45)" fill="#c2c2c2"/>
      </g>
      <g id="Group_1109" data-name="Group 1109" transform="translate(0 -374)">
        <g id="Group_1106" data-name="Group 1106" transform="translate(-9096 -64)">
          <rect id="Rectangle_209" data-name="Rectangle 209" width="128" height="38" rx="3" transform="translate(10344 3428)" fill="#03a9f4"/>
          <g id="Rectangle_214" data-name="Rectangle 214" transform="translate(10339 3423)" fill="none" stroke="#8ad900" stroke-width="1">
            <rect width="138" height="48" rx="3" stroke="none"/>
            <rect x="0.5" y="0.5" width="137" height="47" rx="2.5" fill="none"/>
          </g>
          <path id="Rectangle_208" data-name="Rectangle 208" d="M3,0H32a0,0,0,0,1,0,0V38a0,0,0,0,1,0,0H3a3,3,0,0,1-3-3V3A3,3,0,0,1,3,0Z" transform="translate(10344 3428)" fill="#0091d2"/>
          <text id="Twitter" transform="translate(10387 3452)" fill="#fff" font-size="14" font-family="Asap-Regular, Asap"><tspan x="0" y="0">Twitter</tspan></text>
          <path id="twitter-2" data-name="twitter" d="M17.846,49.717a7.628,7.628,0,0,1-2.108.578,3.638,3.638,0,0,0,1.61-2.022,7.312,7.312,0,0,1-2.32.886A3.658,3.658,0,0,0,8.7,51.66a3.767,3.767,0,0,0,.085.834,10.356,10.356,0,0,1-7.541-3.827,3.66,3.66,0,0,0,1.124,4.89,3.613,3.613,0,0,1-1.653-.451v.04a3.675,3.675,0,0,0,2.931,3.595,3.652,3.652,0,0,1-.959.12,3.235,3.235,0,0,1-.693-.062,3.693,3.693,0,0,0,3.419,2.549,7.351,7.351,0,0,1-4.536,1.56A6.852,6.852,0,0,1,0,60.858,10.3,10.3,0,0,0,5.613,62.5,10.341,10.341,0,0,0,16.026,52.089c0-.162-.006-.318-.013-.473A7.3,7.3,0,0,0,17.846,49.717Z" transform="translate(10351.538 3392)" fill="#fff"/>
        </g>
        <g id="Group_1104" data-name="Group 1104" transform="translate(-9092 -64)">
          <rect id="Rectangle_211" data-name="Rectangle 211" width="128" height="38" rx="3" transform="translate(10487 3428)" fill="#d32f2f"/>
          <g id="Rectangle_215" data-name="Rectangle 215" transform="translate(10482 3423)" fill="none" stroke="#c1c1c1" stroke-width="1">
            <rect width="138" height="48" rx="3" stroke="none"/>
            <rect x="0.5" y="0.5" width="137" height="47" rx="2.5" fill="none"/>
          </g>
          <path id="Rectangle_210" data-name="Rectangle 210" d="M3,0H32a0,0,0,0,1,0,0V38a0,0,0,0,1,0,0H3a3,3,0,0,1-3-3V3A3,3,0,0,1,3,0Z" transform="translate(10487 3428)" fill="#bc0000"/>
          <text id="Pinterest" transform="translate(10530 3452)" fill="#fff" font-size="14" font-family="Asap-Regular, Asap"><tspan x="0" y="0">Pinterest</tspan></text>
          <path id="pinterest-2" data-name="pinterest" d="M55.764,0C50.7,0,48,3.246,48,6.786c0,1.642.917,3.689,2.386,4.338.223.1.344.058.394-.149.044-.157.237-.914.33-1.271a.327.327,0,0,0-.079-.321,4.209,4.209,0,0,1-.874-2.554,4.979,4.979,0,0,1,5.3-4.866c2.888,0,4.909,1.876,4.909,4.56,0,3.032-1.6,5.13-3.69,5.13a1.652,1.652,0,0,1-1.741-2.026A21.962,21.962,0,0,0,55.916,5.9a1.433,1.433,0,0,0-1.483-1.577c-1.175,0-2.128,1.163-2.128,2.725a3.885,3.885,0,0,0,.351,1.662s-1.162,4.695-1.378,5.572a12.468,12.468,0,0,0,.085,4.1.122.122,0,0,0,.222.057,14.555,14.555,0,0,0,1.913-3.6c.143-.528.731-2.669.731-2.669a3.193,3.193,0,0,0,2.694,1.285c3.54,0,6.1-3.111,6.1-6.972C63.008,2.769,59.84,0,55.764,0" transform="translate(10446.996 3438)" fill="#fff"/>
        </g>
        <g id="Group_1105" data-name="Group 1105" transform="translate(-9087 -64)">
          <rect id="Rectangle_206" data-name="Rectangle 206" width="128" height="38" rx="3" transform="translate(10188 3428)" fill="#3f67c0"/>
          <g id="Rectangle_213" data-name="Rectangle 213" transform="translate(10183 3423)" fill="none" stroke="#c1c1c1" stroke-width="1">
            <rect width="138" height="48" rx="3" stroke="none"/>
            <rect x="0.5" y="0.5" width="137" height="47" rx="2.5" fill="none"/>
          </g>
          <path id="Rectangle_207" data-name="Rectangle 207" d="M3,0H32a0,0,0,0,1,0,0V38a0,0,0,0,1,0,0H3a3,3,0,0,1-3-3V3A3,3,0,0,1,3,0Z" transform="translate(10188 3428)" fill="#2057d2"/>
          <path id="facebook" d="M135.836,5.387H132.9V3.428a.98.98,0,0,1,.98-.98h.98V0H132.9a2.938,2.938,0,0,0-2.939,2.939V5.387H128V7.836h1.959v7.836H132.9V7.836h1.959Z" transform="translate(10072.315 3439)" fill="#fff"/>
          <text id="Facebook-2" data-name="Facebook" transform="translate(10231 3452)" fill="#fff" font-size="14" font-family="Asap-Regular, Asap"><tspan x="0" y="0">Facebook</tspan></text>
        </g>
        <g id="Group_1108" data-name="Group 1108" transform="translate(-9091 -59.512)">
          <circle id="Ellipse_116" data-name="Ellipse 116" cx="12.5" cy="12.5" r="12.5" transform="translate(10452 3409.512)" fill="#8ad900"/>
          <g id="tick_1_" data-name="tick (1)" transform="translate(10456.938 3417.16)">
            <g id="Group_1107" data-name="Group 1107" transform="translate(0 0)">
              <path id="Path_347" data-name="Path 347" d="M14.013,68.206a.711.711,0,0,0-1.006,0L4.488,76.725,1.213,73.45A.711.711,0,1,0,.208,74.456l3.777,3.777a.711.711,0,0,0,1.006,0l9.022-9.022A.711.711,0,0,0,14.013,68.206Z" transform="translate(0 -67.997)" fill="#fff"/>
            </g>
          </g>
        </g>
      </g>
      <g id="Group_1110" data-name="Group 1110" transform="translate(0 -382)">
        <rect id="Rectangle_216" data-name="Rectangle 216" width="128" height="38" rx="3" transform="translate(1096 3315)" fill="#ebebeb"/>
        <rect id="Rectangle_217" data-name="Rectangle 217" width="128" height="38" rx="3" transform="translate(1248 3315)" fill="#ebebeb"/>
        <rect id="Rectangle_218" data-name="Rectangle 218" width="128" height="38" rx="3" transform="translate(1395 3315)" fill="#ebebeb"/>
      </g>
      <g id="Group_1115" data-name="Group 1115" transform="translate(0 -167)">
        <rect id="Rectangle_216-2" data-name="Rectangle 216" width="128" height="38" rx="3" transform="translate(1096 3315)" fill="#ebebeb"/>
        <rect id="Rectangle_217-2" data-name="Rectangle 217" width="128" height="38" rx="3" transform="translate(1248 3315)" fill="#ebebeb"/>
        <rect id="Rectangle_218-2" data-name="Rectangle 218" width="128" height="38" rx="3" transform="translate(1395 3315)" fill="#ebebeb"/>
      </g>
      <g id="Group_1111" data-name="Group 1111" transform="translate(0 -433)">
        <rect id="Rectangle_216-3" data-name="Rectangle 216" width="128" height="38" rx="3" transform="translate(1096 3315)" fill="#ebebeb"/>
        <rect id="Rectangle_217-3" data-name="Rectangle 217" width="128" height="38" rx="3" transform="translate(1248 3315)" fill="#ebebeb"/>
        <rect id="Rectangle_218-3" data-name="Rectangle 218" width="128" height="38" rx="3" transform="translate(1395 3315)" fill="#ebebeb"/>
      </g>
      <g id="Group_1113" data-name="Group 1113" transform="translate(0 -218)">
        <rect id="Rectangle_216-4" data-name="Rectangle 216" width="128" height="38" rx="3" transform="translate(1096 3315)" fill="#ebebeb"/>
        <rect id="Rectangle_217-4" data-name="Rectangle 217" width="128" height="38" rx="3" transform="translate(1248 3315)" fill="#ebebeb"/>
        <rect id="Rectangle_218-4" data-name="Rectangle 218" width="128" height="38" rx="3" transform="translate(1395 3315)" fill="#ebebeb"/>
      </g>
      <g id="Group_1112" data-name="Group 1112" transform="translate(0 -484)">
        <rect id="Rectangle_216-5" data-name="Rectangle 216" width="128" height="38" rx="3" transform="translate(1096 3315)" fill="#ebebeb"/>
        <rect id="Rectangle_217-5" data-name="Rectangle 217" width="128" height="38" rx="3" transform="translate(1248 3315)" fill="#ebebeb"/>
        <rect id="Rectangle_218-5" data-name="Rectangle 218" width="128" height="38" rx="3" transform="translate(1395 3315)" fill="#ebebeb"/>
      </g>
      <g id="Group_1114" data-name="Group 1114" transform="translate(0 -269)">
        <rect id="Rectangle_216-6" data-name="Rectangle 216" width="128" height="38" rx="3" transform="translate(1096 3315)" fill="#ebebeb"/>
        <rect id="Rectangle_217-6" data-name="Rectangle 217" width="128" height="38" rx="3" transform="translate(1248 3315)" fill="#ebebeb"/>
        <rect id="Rectangle_218-6" data-name="Rectangle 218" width="128" height="38" rx="3" transform="translate(1395 3315)" fill="#ebebeb"/>
      </g>
    </g>
  </g>
</svg>
