<svg xmlns="http://www.w3.org/2000/svg" xmlns:xlink="http://www.w3.org/1999/xlink" width="692" height="492" viewBox="0 0 692 492">
  <defs>
    <filter id="Rectangle_264" x="333" y="202" width="359" height="290" filterUnits="userSpaceOnUse">
      <feOffset dy="10" input="SourceAlpha"/>
      <feGaussianBlur stdDeviation="13" result="blur"/>
      <feFlood flood-opacity="0.102"/>
      <feComposite operator="in" in2="blur"/>
      <feComposite in="SourceGraphic"/>
    </filter>
    <filter id="Ellipse_67" x="298" y="183" width="148" height="148" filterUnits="userSpaceOnUse">
      <feOffset dy="8" input="SourceAlpha"/>
      <feGaussianBlur stdDeviation="13" result="blur-2"/>
      <feFlood flood-opacity="0.122"/>
      <feComposite operator="in" in2="blur-2"/>
      <feComposite in="SourceGraphic"/>
    </filter>
  </defs>
  <g id="Group_1223" data-name="Group 1223" transform="translate(-973 -176)">
    <g id="Group_1215" data-name="Group 1215" transform="translate(8308 12467)">
      <rect id="Rectangle_263" data-name="Rectangle 263" width="571" height="461" rx="15" transform="translate(-7335 -12291)" fill="#fff"/>
      <g id="Group_1213" data-name="Group 1213" transform="translate(1)">
        <g id="Group_1212" data-name="Group 1212" transform="translate(-2 3)">
          <path id="facebook" d="M142.021,9.64h-5.258V6.134a1.753,1.753,0,0,1,1.753-1.753h1.753V0h-3.505a5.258,5.258,0,0,0-5.258,5.258V9.64H128v4.382h3.505V28.043h5.258V14.021h3.505Z" transform="translate(-7396 -12220)" fill="#777"/>
          <path id="twitter" d="M29.667,50.854a12.68,12.68,0,0,1-3.5.96,6.048,6.048,0,0,0,2.676-3.362,12.155,12.155,0,0,1-3.857,1.472,6.082,6.082,0,0,0-10.521,4.159,6.263,6.263,0,0,0,.141,1.387A17.215,17.215,0,0,1,2.066,49.109a6.084,6.084,0,0,0,1.869,8.129,6.006,6.006,0,0,1-2.748-.749v.067a6.11,6.11,0,0,0,4.873,5.976,6.07,6.07,0,0,1-1.595.2,5.378,5.378,0,0,1-1.151-.1A6.14,6.14,0,0,0,9,66.865a12.221,12.221,0,0,1-7.541,2.594A11.392,11.392,0,0,1,0,69.375,17.123,17.123,0,0,0,9.33,72.1c11.192,0,17.311-9.271,17.311-17.307,0-.269-.009-.528-.022-.786A12.133,12.133,0,0,0,29.667,50.854Z" transform="translate(-7276 -12199)" fill="#777"/>
          <g id="instagram" transform="translate(-7273 -12087)">
            <path id="Path_381" data-name="Path 381" d="M17.159,0H7.281A7.289,7.289,0,0,0,0,7.281v9.878a7.289,7.289,0,0,0,7.281,7.281h9.878a7.289,7.289,0,0,0,7.281-7.281V7.281A7.289,7.289,0,0,0,17.159,0Zm4.822,17.159a4.822,4.822,0,0,1-4.822,4.822H7.281a4.822,4.822,0,0,1-4.822-4.822V7.281A4.822,4.822,0,0,1,7.281,2.459h9.878a4.822,4.822,0,0,1,4.822,4.822v9.878Z" fill="#777"/>
            <path id="Path_382" data-name="Path 382" d="M139.321,133a6.321,6.321,0,1,0,6.321,6.321A6.328,6.328,0,0,0,139.321,133Zm0,10.183a3.862,3.862,0,1,1,3.862-3.862A3.862,3.862,0,0,1,139.321,143.183Z" transform="translate(-127.101 -127.101)" fill="#777"/>
            <circle id="Ellipse_126" data-name="Ellipse 126" cx="1.515" cy="1.515" r="1.515" transform="translate(17.038 4.432)" fill="#777"/>
          </g>
          <g id="linkedin" transform="translate(-7273.769 -12014)">
            <g id="Group_1178" data-name="Group 1178" transform="translate(0 8.165)">
              <g id="Group_1177" data-name="Group 1177">
                <rect id="Rectangle_262" data-name="Rectangle 262" width="5.843" height="17.963" fill="#777"/>
              </g>
            </g>
            <g id="Group_1180" data-name="Group 1180" transform="translate(8.165 8.165)">
              <g id="Group_1179" data-name="Group 1179">
                <path id="Path_383" data-name="Path 383" d="M173.593,160.211c-.062-.02-.121-.041-.186-.059s-.157-.033-.237-.046a5.237,5.237,0,0,0-1.048-.106,8.118,8.118,0,0,0-6.279,3.434V160H160v17.963h5.843v-9.8s4.416-6.15,6.279-1.633v11.431h5.841V165.841A5.826,5.826,0,0,0,173.593,160.211Z" transform="translate(-160 -160)" fill="#777"/>
              </g>
            </g>
            <g id="Group_1182" data-name="Group 1182">
              <g id="Group_1181" data-name="Group 1181">
                <circle id="Ellipse_127" data-name="Ellipse 127" cx="3" cy="3" r="3" transform="translate(-0.231)" fill="#777"/>
              </g>
            </g>
          </g>
          <path id="pinterest" d="M61.723,0C52.767,0,48,5.739,48,12c0,2.9,1.622,6.521,4.218,7.669.394.178.609.1.7-.263.078-.278.419-1.616.584-2.247a.578.578,0,0,0-.139-.568,7.442,7.442,0,0,1-1.546-4.516c0-4.365,3.47-8.6,9.375-8.6,5.106,0,8.678,3.317,8.678,8.061,0,5.361-2.837,9.07-6.523,9.07a2.921,2.921,0,0,1-3.078-3.582c.582-2.359,1.724-4.9,1.724-6.6A2.534,2.534,0,0,0,59.37,7.634c-2.077,0-3.762,2.057-3.762,4.818a6.869,6.869,0,0,0,.621,2.939s-2.055,8.3-2.437,9.85c-.645,2.624.088,6.875.151,7.24a.215.215,0,0,0,.392.1,25.732,25.732,0,0,0,3.382-6.37c.253-.933,1.293-4.718,1.293-4.718a5.646,5.646,0,0,0,4.763,2.271c6.258,0,10.78-5.5,10.78-12.326C74.53,4.9,68.93,0,61.723,0" transform="translate(-7322.004 -11940)" fill="#777"/>
        </g>
        <g id="brand" transform="translate(-6863.303 -11937.002)">
          <path id="Path_356" data-name="Path 356" d="M10.639,7.864l14,6.738a.593.593,0,0,0,.514,0l14-6.738a.592.592,0,0,0,0-1.068L25.15.059a.593.593,0,0,0-.514,0l-14,6.737A.592.592,0,0,0,10.639,7.864Z" transform="translate(-0.001 0)" fill="#777"/>
          <path id="Path_357" data-name="Path 357" d="M10.639,155.413l14,6.738a.593.593,0,0,0,.514,0l14-6.738a.592.592,0,0,0,0-1.068l-2.953-1.421-9.38,4.515a4.433,4.433,0,0,1-3.844,0l-9.378-4.514-2.953,1.422A.592.592,0,0,0,10.639,155.413Z" transform="translate(-0.001 -139.377)" fill="#777"/>
          <path id="Path_358" data-name="Path 358" d="M39.147,246.6l-2.953-1.422-9.38,4.515a4.433,4.433,0,0,1-3.844,0l-9.378-4.514L10.638,246.6a.592.592,0,0,0,0,1.068l14,6.738a.593.593,0,0,0,.514,0l14-6.738A.592.592,0,0,0,39.147,246.6Z" transform="translate(0 -223.462)" fill="#777"/>
        </g>
        <g id="evernote" transform="translate(-6851.527 -12216.832)">
          <path id="Path_377" data-name="Path 377" d="M8.836,1.236,3.252,6.862a.107.107,0,0,0-.016.016A.865.865,0,0,0,4.46,8.1,5.428,5.428,0,0,1,6.3,8.2c4.312.65,4.172-.7,3.864-4.538-.046-.562-.092-1.143-.1-1.214A.864.864,0,0,0,8.836,1.236ZM8.569,6.569C8.283,6.8,6.59,6.5,6.118,6.427L8.46,4.068A9.645,9.645,0,0,1,8.569,6.569Z" transform="translate(0.149 0.147)" fill="#777"/>
          <path id="Path_378" data-name="Path 378" d="M2,9.312C1.957,13.684,3,17.3,6.7,19.7a5.573,5.573,0,0,0,5.44.59A3.835,3.835,0,0,0,14.129,18.2a7.339,7.339,0,0,0,2.486,1.027,4.086,4.086,0,0,0-3.8,4.11c0,2.324,1.923,4.14,4.574,4.317,3.431.22,6.639-2.2,7.288-7.043A42.057,42.057,0,0,0,24.232,6.52c-.713-3.463-6.323-4.409-8.243-4.633C15.108-.024,13.4,0,11.281,0a.864.864,0,0,0,0,1.729c1.686-.006,2.932-.1,3.226,1.133a.863.863,0,0,0,.78.69C17.019,3.69,22.07,4.59,22.54,6.87A42.706,42.706,0,0,1,23,20.235c-.038.12-.66,6.008-5.491,5.69-1.426-.1-2.961-.946-2.961-2.592,0-1.821,1.923-2.645,2.323-2.352l.038.121a1.6,1.6,0,0,1-.348.1,1.859,1.859,0,0,0-1.426,2.528,2.6,2.6,0,0,0,2.471,1.577A3.4,3.4,0,0,0,21,21.8c0-3.161-2.3-3.8-3.978-4.258s-2.368-.766-2.452-1.926a.842.842,0,0,0-.921-.8.864.864,0,0,0-.8.917c0,.023.124,2.29-1.409,2.976a3.912,3.912,0,0,1-3.794-.463c-3.2-2.074-3.947-5.184-3.908-8.919A.864.864,0,0,0,2,9.312Zm16.6,11.743a1.766,1.766,0,0,0-.6-1.368A1.981,1.981,0,0,1,19.267,21.8a1.684,1.684,0,0,1-1.67,1.785.9.9,0,0,1-.848-.464c-.063-.166.145-.216.207-.229A1.826,1.826,0,0,0,18.607,21.055Z" fill="#777"/>
          <path id="Path_379" data-name="Path 379" d="M17.135,11.067c.151-.436,1-.325,1.056.186a.864.864,0,0,0,1.719-.168,2.233,2.233,0,0,0-2.034-2A2.155,2.155,0,0,0,15.5,10.5a.865.865,0,0,0,1.635.566Z" transform="translate(2.05 1.382)" fill="#777"/>
        </g>
        <g id="hacker-news" transform="translate(-6847 -12145.393)">
          <g id="Group_1176" data-name="Group 1176" transform="translate(0 0.393)">
            <path id="Path_380" data-name="Path 380" d="M0,.393v16.58H17.007V.393Zm9.59,8.1v5.617H7.417V8.488L4.042,3l2.509-.013s1.992,3.529,2,3.543h.039C8.607,6.521,10.651,3,10.651,3h2.314Z" transform="translate(0 -0.393)" fill="#777"/>
          </g>
        </g>
        <path id="plurk" d="M16.064,2A12.547,12.547,0,0,0,5.9,7.014a3.235,3.235,0,0,1,.97-.581A2.045,2.045,0,0,1,7.99,6.324c1.793.356,2.727,3.217,2.085,6.392C8.85,18.781,3.89,19.746,3.41,14.131v-.006A12.353,12.353,0,0,0,4.7,19.956l-.032-.072c.279.579-1.185.745-.8,1.93l0-.007a1.29,1.29,0,0,0,.083.2l0-.006.349-.263a.323.323,0,0,1,.393.513l-.351.264c1.037,1.145,1.859,2.912,3.055,1.946l0,0c.129-.056.443-.528.788-.259h0A12.526,12.526,0,0,0,16.315,26.9H16.3a12.541,12.541,0,0,0,6.976-2.313l-.037.026a.372.372,0,0,1,.473.031,1.353,1.353,0,0,0,.98.5,1.129,1.129,0,0,0,.693-.235l0,0-.266-.248a.324.324,0,0,1,.446-.469l.28.259c.579-.82,2.747-2.064,1.528-3.215-.214-.228-.585-.422-.393-.755h0a12.291,12.291,0,0,0,1.362-8.3l.012.076a6.226,6.226,0,0,0,1.331-1.594c.288-.619.361-1.258-.4-.977a2.679,2.679,0,0,1-1.6.234A12.606,12.606,0,0,0,16.069,2h0ZM2.819,7.354A1.518,1.518,0,0,0,1.475,9.538l0-.007a1.522,1.522,0,1,0,.944,2.754l0,0a1.513,1.513,0,0,0,.492-.58,2.739,2.739,0,0,0,.969,1.015,6.849,6.849,0,0,0,.022.766v-.026c.365,4.355,4.211,3.582,5.153-1.091.72-3.55-1.124-6.184-3.228-4.408A5.319,5.319,0,0,0,4.4,10.1c-.182-.037-.313-.173-.426-.2A1.518,1.518,0,0,0,2.847,7.354h-.03ZM6.382,8.888c1.235,0,1.524,1.884,1.25,3.235-.6,2.977-3.052,3.565-3.347.8A1.747,1.747,0,0,0,6.4,12.445c.431-.574.1-2.163-.466-2.368-.443-.161-.706.034-1.1.062.32-.59.88-1.244,1.546-1.251Z" transform="translate(-6853.142 -12086.451)" fill="#777"/>
        <g id="viadeo" transform="translate(-6858.844 -12014.728)">
          <g id="Group_1205" data-name="Group 1205" transform="translate(6.664)">
            <path id="Path_418" data-name="Path 418" d="M29.1,16.537c-.021-.054-.051-.1-.077-.158-.3.156-.585.316-.881.451s-.583.251-.882.355-.618.187-.926.278a.362.362,0,0,0,.005.061c.013.041.026.082.042.121a9.765,9.765,0,0,1,.235,6.218,9.015,9.015,0,0,1-2.131,3.69A8.357,8.357,0,0,1,19.06,30.1c-.2.018-.393.016-.606.023.01-.048.008-.059.013-.062.11-.082.22-.163.33-.246a17.485,17.485,0,0,0,5.186-6.244A15.443,15.443,0,0,0,25.579,17a17.163,17.163,0,0,0-.269-3.358,20.9,20.9,0,0,0-1.017-3.693,1.86,1.86,0,0,0-.086-.181c-.027-.2-.035-.259-.042-.3s0-.1,0-.11a18.292,18.292,0,0,0-.586-3.08A14.254,14.254,0,0,0,21.86,2.413a10.093,10.093,0,0,0-1.9-2.226c-.071-.06-.145-.117-.234-.187,0,.047-.013.075,0,.092.053.1.11.194.166.29a55.51,55.51,0,0,1,3.425,6.969c.269.659.514,1.328.77,1.992l.076.139c.006.039.016.108.041.3.014.35.033.71.039,1.021a44.5,44.5,0,0,1-.2,5.454c-.086.838-.192,1.672-.334,2.5a27.241,27.241,0,0,1-.7,3.086,18.344,18.344,0,0,1-1.445,3.6A11.261,11.261,0,0,1,19.515,28.2,8.361,8.361,0,0,1,16.89,29.94a.53.53,0,0,1-.322.034,8.394,8.394,0,0,1-5.86-4.344A9.278,9.278,0,0,1,9.62,22.085a10.12,10.12,0,0,1,.031-2.211,8.984,8.984,0,0,1,.706-2.6,9.373,9.373,0,0,1,2.357-3.185A8.3,8.3,0,0,1,15.33,12.48a8.2,8.2,0,0,1,1.947-.467,9.087,9.087,0,0,1,1.775-.026,7.715,7.715,0,0,1,2.2.5c.061.024.126.039.216.067a7.879,7.879,0,0,1,.305-1.42,11.239,11.239,0,0,1,.546-1.33.974.974,0,0,0-.344-.143,11.765,11.765,0,0,0-2.955-.534,12.665,12.665,0,0,0-3.2.221,10.48,10.48,0,0,0-3.545,1.4,11.877,11.877,0,0,0-2.739,2.4,11.773,11.773,0,0,0-2.852,7.19,13.035,13.035,0,0,0,.083,2.339,11.608,11.608,0,0,0,.856,3.171A12.471,12.471,0,0,0,10.68,30.11a10.249,10.249,0,0,0,3.31,2.045,11.5,11.5,0,0,0,3.567.728,13.21,13.21,0,0,0,3.382-.243A10.463,10.463,0,0,0,25.068,30.8a12.129,12.129,0,0,0,2.5-2.541A11.68,11.68,0,0,0,29.9,21.818a13.133,13.133,0,0,0-.15-2.9A11.493,11.493,0,0,0,29.1,16.537Z" transform="translate(-6.664)" fill="#777"/>
            <path id="Path_419" data-name="Path 419" d="M69.263,5a10.9,10.9,0,0,0-1.079-2.637c-.068-.118-.144-.232-.232-.371-.066.12-.12.215-.171.311a6.646,6.646,0,0,1-1.256,1.687,5.9,5.9,0,0,1-2.719,1.547c-.092.022-.183.047-.274.074a10.016,10.016,0,0,0-2.229.924,4.206,4.206,0,0,0-1.235,1.075,4.13,4.13,0,0,0-.895,2.783,5.361,5.361,0,0,0,.688,2.378,1.336,1.336,0,0,0,.09.122,11.552,11.552,0,0,0,7.56-5.733,1.647,1.647,0,0,1-.014.2,3.334,3.334,0,0,1-.267.75,6.429,6.429,0,0,1-1,1.432,15.746,15.746,0,0,1-2.252,2.034A29.31,29.31,0,0,1,60.916,13.6a.52.52,0,0,0-.23.173c.144.129.281.259.425.38a5.518,5.518,0,0,0,1.817,1.05,3.974,3.974,0,0,0,1.956.152,4.351,4.351,0,0,0,2.127-1.03,7.062,7.062,0,0,0,1.466-1.815,6.806,6.806,0,0,0,.592-1.227,10.471,10.471,0,0,0,.547-2.77A10.881,10.881,0,0,0,69.263,5Z" transform="translate(-41.278 -1.311)" fill="#777"/>
          </g>
        </g>
        <g id="calendar" transform="translate(-7202.8 -12217)">
          <g id="Group_1164" data-name="Group 1164" transform="translate(11.8)">
            <g id="Group_1163" data-name="Group 1163" transform="translate(0)">
              <path id="Path_359" data-name="Path 359" d="M37.433,4.982A3.54,3.54,0,0,0,36.377,3.14a4.429,4.429,0,0,0-3.14-1.3H31.365V.574a.574.574,0,0,0-1.147,0V1.812H19.288V.574a.574.574,0,0,0-1.147,0V1.812H16.268a4.458,4.458,0,0,0-2.506.755,3.74,3.74,0,0,0-.664.543,4.429,4.429,0,0,0-1.3,3.14V23.188a4.433,4.433,0,0,0,4.438,4.438H33.206a4.433,4.433,0,0,0,4.438-4.438V6.31A3.95,3.95,0,0,0,37.433,4.982Zm-.876,18.236a3.3,3.3,0,0,1-3.321,3.351H16.268a3.3,3.3,0,0,1-3.321-3.321V9.873h23.61Zm.03-14.462H12.947V6.28a3.3,3.3,0,0,1,3.321-3.321H18.14V4.2a.574.574,0,0,0,1.147,0V2.959h10.96V4.2a.574.574,0,0,0,1.147,0V2.959h1.872a3.334,3.334,0,0,1,2.355.966,3.2,3.2,0,0,1,.906,1.691,4.937,4.937,0,0,1,.06.664Z" transform="translate(-11.8)" fill="#777"/>
              <path id="Path_360" data-name="Path 360" d="M63.581,155.163a1.917,1.917,0,0,0,1.268-.513,1.78,1.78,0,0,0,.513-1.268,1.793,1.793,0,0,0-3.049-1.268,1.78,1.78,0,0,0-.513,1.268,1.917,1.917,0,0,0,.513,1.268A1.78,1.78,0,0,0,63.581,155.163Zm-.513-2.264a.637.637,0,0,1,.483-.181.686.686,0,0,1,.483.181.637.637,0,0,1,.181.483.544.544,0,0,1-.181.483.637.637,0,0,1-.483.181.686.686,0,0,1-.483-.181.637.637,0,0,1-.181-.483A.686.686,0,0,1,63.068,152.9Z" transform="translate(-58.026 -140.157)" fill="#777"/>
              <path id="Path_361" data-name="Path 361" d="M128.781,155.163a1.917,1.917,0,0,0,1.268-.513,1.78,1.78,0,0,0,.513-1.268,1.917,1.917,0,0,0-.513-1.268,1.682,1.682,0,0,0-1.268-.513,1.917,1.917,0,0,0-1.268.513,1.78,1.78,0,0,0-.513,1.268,1.917,1.917,0,0,0,.513,1.268A1.78,1.78,0,0,0,128.781,155.163ZM128.3,152.9a.637.637,0,0,1,.483-.181.686.686,0,0,1,.483.181.665.665,0,0,1-.483,1.147.686.686,0,0,1-.483-.181.638.638,0,0,1-.181-.483A.686.686,0,0,1,128.3,152.9Z" transform="translate(-118.305 -140.157)" fill="#777"/>
              <path id="Path_362" data-name="Path 362" d="M194.381,155.163a1.917,1.917,0,0,0,1.268-.513,1.78,1.78,0,0,0,.513-1.268,1.917,1.917,0,0,0-.513-1.268,1.73,1.73,0,0,0-1.268-.513,1.917,1.917,0,0,0-1.268.513,1.73,1.73,0,0,0-.513,1.268,1.917,1.917,0,0,0,.513,1.268A1.78,1.78,0,0,0,194.381,155.163Zm-.483-2.234a.637.637,0,0,1,.483-.181.686.686,0,0,1,.483.181.665.665,0,0,1-.513,1.117.686.686,0,0,1-.483-.181.742.742,0,0,1-.151-.453A.686.686,0,0,1,193.9,152.928Z" transform="translate(-178.953 -140.157)" fill="#777"/>
              <path id="Path_363" data-name="Path 363" d="M259.581,155.163a1.917,1.917,0,0,0,1.268-.513,1.78,1.78,0,0,0,.513-1.268,1.917,1.917,0,0,0-.513-1.268,1.8,1.8,0,0,0-1.268-.513,1.917,1.917,0,0,0-1.268.513,1.78,1.78,0,0,0-.513,1.268,1.917,1.917,0,0,0,.513,1.268A1.78,1.78,0,0,0,259.581,155.163ZM259.1,152.9a.637.637,0,0,1,.483-.181.686.686,0,0,1,.483.181.665.665,0,0,1-.483,1.147.686.686,0,0,1-.483-.181.637.637,0,0,1-.181-.483A.686.686,0,0,1,259.1,152.9Z" transform="translate(-239.232 -140.157)" fill="#777"/>
              <path id="Path_364" data-name="Path 364" d="M63.581,220.763a1.917,1.917,0,0,0,1.268-.513,1.78,1.78,0,0,0,.513-1.268,1.917,1.917,0,0,0-.513-1.268,1.78,1.78,0,0,0-1.268-.513,1.917,1.917,0,0,0-1.268.513,1.78,1.78,0,0,0-.513,1.268,1.917,1.917,0,0,0,.513,1.268A1.78,1.78,0,0,0,63.581,220.763Zm-.513-2.264a.637.637,0,0,1,.483-.181.686.686,0,0,1,.483.181.637.637,0,0,1,.181.483.576.576,0,0,1-.181.483.637.637,0,0,1-.483.181.686.686,0,0,1-.483-.181.637.637,0,0,1-.181-.483A.686.686,0,0,1,63.068,218.5Z" transform="translate(-58.026 -200.806)" fill="#777"/>
              <path id="Path_365" data-name="Path 365" d="M128.781,220.763a1.917,1.917,0,0,0,1.268-.513,1.73,1.73,0,0,0,.513-1.268,1.917,1.917,0,0,0-.513-1.268,1.682,1.682,0,0,0-1.268-.513,1.917,1.917,0,0,0-1.268.513,1.78,1.78,0,0,0-.513,1.268,1.917,1.917,0,0,0,.513,1.268A1.78,1.78,0,0,0,128.781,220.763ZM128.3,218.5a.637.637,0,0,1,.483-.181.686.686,0,0,1,.483.181.637.637,0,0,1,.181.483.686.686,0,0,1-.181.483.637.637,0,0,1-.483.181.686.686,0,0,1-.483-.181.638.638,0,0,1-.181-.483A.686.686,0,0,1,128.3,218.5Z" transform="translate(-118.305 -200.806)" fill="#777"/>
              <path id="Path_366" data-name="Path 366" d="M194.381,220.763a1.917,1.917,0,0,0,1.268-.513,1.73,1.73,0,0,0,.513-1.268,1.917,1.917,0,0,0-.513-1.268,1.73,1.73,0,0,0-1.268-.513,1.917,1.917,0,0,0-1.268.513,1.73,1.73,0,0,0-.513,1.268,1.917,1.917,0,0,0,.513,1.268A1.73,1.73,0,0,0,194.381,220.763Zm-.513-2.264a.637.637,0,0,1,.483-.181.686.686,0,0,1,.483.181.637.637,0,0,1,.181.483.576.576,0,0,1-.181.483.637.637,0,0,1-.483.181.686.686,0,0,1-.483-.181.637.637,0,0,1-.181-.483A.686.686,0,0,1,193.868,218.5Z" transform="translate(-178.953 -200.806)" fill="#777"/>
              <path id="Path_367" data-name="Path 367" d="M259.581,220.763a1.917,1.917,0,0,0,1.268-.513,1.78,1.78,0,0,0,.513-1.268,1.917,1.917,0,0,0-.513-1.268,1.682,1.682,0,0,0-1.268-.513,1.917,1.917,0,0,0-1.268.513,1.78,1.78,0,0,0-.513,1.268,1.917,1.917,0,0,0,.513,1.268A1.78,1.78,0,0,0,259.581,220.763ZM259.1,218.5a.637.637,0,0,1,.483-.181.686.686,0,0,1,.483.181.637.637,0,0,1,.181.483.686.686,0,0,1-.181.483.637.637,0,0,1-.483.181.686.686,0,0,1-.483-.181.637.637,0,0,1-.181-.483A.686.686,0,0,1,259.1,218.5Z" transform="translate(-239.232 -200.806)" fill="#777"/>
              <path id="Path_368" data-name="Path 368" d="M63.581,285.563a1.917,1.917,0,0,0,1.268-.513,1.78,1.78,0,0,0,.513-1.268,1.916,1.916,0,0,0-.513-1.268A1.78,1.78,0,0,0,63.581,282a1.916,1.916,0,0,0-1.268.513,1.78,1.78,0,0,0-.513,1.268,1.917,1.917,0,0,0,.513,1.268A1.78,1.78,0,0,0,63.581,285.563Zm-.513-2.264a.637.637,0,0,1,.483-.181.686.686,0,0,1,.483.181.637.637,0,0,1,.181.483.576.576,0,0,1-.181.483.637.637,0,0,1-.483.181.686.686,0,0,1-.483-.181.637.637,0,0,1-.181-.483A.686.686,0,0,1,63.068,283.3Z" transform="translate(-58.026 -260.714)" fill="#777"/>
              <path id="Path_369" data-name="Path 369" d="M128.781,285.563a1.917,1.917,0,0,0,1.268-.513,1.73,1.73,0,0,0,.513-1.268,1.917,1.917,0,0,0-.513-1.268,1.682,1.682,0,0,0-1.268-.513,1.916,1.916,0,0,0-1.268.513,1.78,1.78,0,0,0-.513,1.268,1.917,1.917,0,0,0,.513,1.268A1.78,1.78,0,0,0,128.781,285.563ZM128.3,283.3a.637.637,0,0,1,.483-.181.686.686,0,0,1,.483.181.637.637,0,0,1,.181.483.685.685,0,0,1-.181.483.637.637,0,0,1-.483.181.686.686,0,0,1-.483-.181.637.637,0,0,1-.181-.483A.686.686,0,0,1,128.3,283.3Z" transform="translate(-118.305 -260.714)" fill="#777"/>
              <path id="Path_370" data-name="Path 370" d="M194.381,285.563a1.917,1.917,0,0,0,1.268-.513,1.73,1.73,0,0,0,.513-1.268,1.916,1.916,0,0,0-.513-1.268,1.78,1.78,0,0,0-1.268-.513,1.916,1.916,0,0,0-1.268.513,1.78,1.78,0,0,0-.513,1.268,1.917,1.917,0,0,0,.513,1.268A1.73,1.73,0,0,0,194.381,285.563Zm-.513-2.264a.637.637,0,0,1,.483-.181.686.686,0,0,1,.483.181.637.637,0,0,1,.181.483.576.576,0,0,1-.181.483.637.637,0,0,1-.483.181.686.686,0,0,1-.483-.181.637.637,0,0,1-.181-.483A.686.686,0,0,1,193.868,283.3Z" transform="translate(-178.953 -260.714)" fill="#777"/>
              <path id="Path_371" data-name="Path 371" d="M259.581,285.563a1.917,1.917,0,0,0,1.268-.513,1.78,1.78,0,0,0,.513-1.268,1.916,1.916,0,0,0-.513-1.268,1.682,1.682,0,0,0-1.268-.513,1.917,1.917,0,0,0-1.268.513,1.78,1.78,0,0,0-.513,1.268,1.917,1.917,0,0,0,.513,1.268A1.78,1.78,0,0,0,259.581,285.563ZM259.1,283.3a.637.637,0,0,1,.483-.181.686.686,0,0,1,.483.181.638.638,0,0,1,.181.483.686.686,0,0,1-.181.483.637.637,0,0,1-.483.181.686.686,0,0,1-.483-.181.637.637,0,0,1-.181-.483A.686.686,0,0,1,259.1,283.3Z" transform="translate(-239.232 -260.714)" fill="#777"/>
            </g>
          </g>
        </g>
        <g id="skype" transform="translate(-7193 -12151)">
          <path id="Path_411" data-name="Path 411" d="M28.664,14.742A13.821,13.821,0,0,0,14.746,1.02a14.242,14.242,0,0,0-2.38.2A8.122,8.122,0,0,0,8.072,0,8.015,8.015,0,0,0,0,7.959a7.843,7.843,0,0,0,1.109,4.025,13.613,13.613,0,0,0-.283,2.758A13.823,13.823,0,0,0,14.744,28.467a14.318,14.318,0,0,0,2.55-.23,8.136,8.136,0,0,0,3.817.945,8.015,8.015,0,0,0,8.071-7.957,7.838,7.838,0,0,0-.839-3.535A13.552,13.552,0,0,0,28.664,14.742Z" fill="#777"/>
          <path id="Path_412" data-name="Path 412" d="M130.126,105.492a6.308,6.308,0,0,1-2.829,2.114,11.478,11.478,0,0,1-4.348.757,10.733,10.733,0,0,1-4.985-1.032,6.469,6.469,0,0,1-2.291-2.006,4.314,4.314,0,0,1-.89-2.48,1.709,1.709,0,0,1,.58-1.293,2.053,2.053,0,0,1,1.454-.533,1.861,1.861,0,0,1,1.226.419,3.17,3.17,0,0,1,.815,1.176,6.787,6.787,0,0,0,.8,1.4,3.1,3.1,0,0,0,1.169.894,4.89,4.89,0,0,0,2.021.356,4.964,4.964,0,0,0,2.8-.72,2,2,0,0,0,1.03-1.713,1.682,1.682,0,0,0-.536-1.3,3.837,3.837,0,0,0-1.485-.81c-.633-.193-1.492-.4-2.553-.624a20.257,20.257,0,0,1-3.648-1.076,6.029,6.029,0,0,1-2.391-1.724,4.255,4.255,0,0,1-.9-2.752,4.416,4.416,0,0,1,.945-2.776,5.859,5.859,0,0,1,2.7-1.851,11.961,11.961,0,0,1,4.084-.633,11.157,11.157,0,0,1,3.248.423,7.191,7.191,0,0,1,2.3,1.129,4.927,4.927,0,0,1,1.353,1.5,3.276,3.276,0,0,1,.436,1.565,1.851,1.851,0,0,1-.571,1.324,1.931,1.931,0,0,1-1.43.587,1.783,1.783,0,0,1-1.2-.368,4.465,4.465,0,0,1-.832-1.091,4.572,4.572,0,0,0-1.249-1.525,3.959,3.959,0,0,0-2.325-.527,4.4,4.4,0,0,0-2.411.587,1.565,1.565,0,0,0-.863,1.315,1.191,1.191,0,0,0,.279.8,2.463,2.463,0,0,0,.83.622,6.174,6.174,0,0,0,1.12.429c.387.106,1.034.264,1.926.467,1.127.237,2.161.505,3.077.8a9.861,9.861,0,0,1,2.384,1.071,4.722,4.722,0,0,1,1.569,1.632,4.845,4.845,0,0,1,.565,2.418A5.166,5.166,0,0,1,130.126,105.492Z" transform="translate(-108.242 -84.191)" fill="#fafafa"/>
        </g>
        <g id="tumblr" transform="translate(-7280.968 -12084)">
          <g id="Group_1204" data-name="Group 1204" transform="translate(95.968)">
            <path id="Path_417" data-name="Path 417" d="M107.59,19.7a3.383,3.383,0,0,1-1.771-.462,2.148,2.148,0,0,1-.9-1.016,10.528,10.528,0,0,1-.126-2.542V10.288h5.888v-4.4h-5.888V0H101a8.967,8.967,0,0,1-.832,2.992,6.516,6.516,0,0,1-1.574,2.027,8.286,8.286,0,0,1-2.624,1.293V9.645h3.158v8.247a6.8,6.8,0,0,0,.341,2.469,4.078,4.078,0,0,0,1.213,1.6,6.076,6.076,0,0,0,2.122,1.168,7.176,7.176,0,0,0,2.534.4,11.093,11.093,0,0,0,2.639-.288,13.172,13.172,0,0,0,2.7-.935V18.772A4.8,4.8,0,0,1,107.59,19.7Z" transform="translate(-95.968)" fill="#777"/>
          </g>
        </g>
        <g id="sina-weibo" transform="translate(-7194.058 -12013.933)">
          <path id="Path_407" data-name="Path 407" d="M4.932,25.927c9.129,5.045,23.482.418,24.38-6.736.424-3.379-1.452-4.543-4.14-5.845A4.1,4.1,0,0,0,24.7,9.515c-1.734-1.97-4.669-1.08-7.039-.453.529-4.627-5.087-6.864-12.595.483C-.987,15.466-2.356,21.9,4.932,25.927ZM6.464,10.973c3.107-3.041,5.889-4.154,7.527-4.154,1.869,0,1.994,1.452,1.407,3.209a1,1,0,0,0,1.012,1.315,12.233,12.233,0,0,0,2.19-.464c3.674-.992,5.815-.952,4.422,2.608-.389.991.638,1.351,1.532,1.778,9.625,4.606-7.359,15.154-18.654,8.913-6.107-3.375-4.443-8.306.565-13.2Z" transform="translate(0 0.86)" fill="#777"/>
          <path id="Path_408" data-name="Path 408" d="M11.754,22.9c3.736-.6,6.391-3.584,5.917-6.66-.51-3.33-4.181-5.06-7.643-4.507-3.736.6-6.389,3.584-5.917,6.66.51,3.33,4.184,5.06,7.643,4.507Zm-1.412-9.193c2.348-.376,5.021.666,5.354,2.837.305,1.994-1.6,3.96-4.257,4.383-2.323.369-5.019-.655-5.354-2.836C5.781,16.1,7.689,14.129,10.342,13.705Z" transform="translate(1.353 3.131)" fill="#777"/>
          <path id="Path_409" data-name="Path 409" d="M17.184,7.429c1.858-.056,3.464.706,3.357,2.715a1,1,0,0,0,.943,1.052h.056a1,1,0,0,0,1-.944c.177-3.285-2.528-5.013-5.444-4.819a1,1,0,0,0-.948,1.042,1.047,1.047,0,0,0,1.04.954Z" transform="translate(5.365 1.069)" fill="#777"/>
          <path id="Path_410" data-name="Path 410" d="M16.5,2.3a1,1,0,1,0,.286,1.978c5.307-.619,9.44,4.136,7.612,9.073a1,1,0,1,0,1.863.719C28.769,7.573,22.922,1.319,16.5,2.3Z" transform="translate(5.198 0)" fill="#777"/>
        </g>
        <g id="whatsapp" transform="translate(-7193.138 -11936.138)">
          <path id="Path_420" data-name="Path 420" d="M14.81,0H14.8A14.8,14.8,0,0,0,2.819,23.485l-1.845,5.5,5.691-1.819A14.8,14.8,0,1,0,14.81,0Z" fill="#777"/>
          <path id="Path_421" data-name="Path 421" d="M124.486,131.225a4.178,4.178,0,0,1-2.906,2.09c-.774.165-1.784.3-5.186-1.114-4.351-1.8-7.153-6.224-7.372-6.511a8.456,8.456,0,0,1-1.758-4.466,4.727,4.727,0,0,1,1.514-3.6,2.151,2.151,0,0,1,1.514-.531c.183,0,.348.009.5.017.435.019.653.044.94.731.357.861,1.227,2.985,1.331,3.2a.881.881,0,0,1,.063.8,2.559,2.559,0,0,1-.479.679c-.218.252-.426.444-.644.714-.2.235-.426.487-.174.922a13.142,13.142,0,0,0,2.4,2.985,10.885,10.885,0,0,0,3.472,2.141.936.936,0,0,0,1.044-.165,17.914,17.914,0,0,0,1.157-1.532.826.826,0,0,1,1.062-.322c.4.139,2.515,1.185,2.95,1.4s.722.322.827.505A3.688,3.688,0,0,1,124.486,131.225Z" transform="translate(-101.06 -110.316)" fill="#fafafa"/>
        </g>
        <g id="digg" transform="translate(-7102 -12293)">
          <g id="Group_1166" data-name="Group 1166" transform="translate(8.799 85.531)">
            <g id="Group_1165" data-name="Group 1165" transform="translate(0 0)">
              <rect id="Rectangle_260" data-name="Rectangle 260" width="3" height="9" transform="translate(-0.415 0.233)" fill="#777"/>
            </g>
          </g>
          <g id="Group_1168" data-name="Group 1168" transform="translate(12.872 85.517)">
            <g id="Group_1167" data-name="Group 1167">
              <path id="Path_372" data-name="Path 372" d="M224,176v9.194h4.6v2.758H224v2.758h7.355V176Zm4.6,6.436h-1.839v-3.678H228.6Z" transform="translate(-224 -176)" fill="#777"/>
            </g>
          </g>
          <g id="Group_1170" data-name="Group 1170" transform="translate(22.066 85.517)">
            <g id="Group_1169" data-name="Group 1169">
              <path id="Path_373" data-name="Path 373" d="M384,176v9.194h4.6v2.758H384v2.758h7.355V176Zm4.6,6.436h-1.839v-3.678H388.6Z" transform="translate(-384 -176)" fill="#777"/>
            </g>
          </g>
          <g id="Group_1172" data-name="Group 1172" transform="translate(0 80)">
            <g id="Group_1171" data-name="Group 1171" transform="translate(0 0)">
              <path id="Path_374" data-name="Path 374" d="M4.6,80v5.517H0v9.194H7.355V80Zm0,11.953H2.758V88.275H4.6Z" transform="translate(0 -80)" fill="#777"/>
            </g>
          </g>
          <g id="Group_1174" data-name="Group 1174" transform="translate(8.799 81.76)">
            <g id="Group_1173" data-name="Group 1173" transform="translate(0 0)">
              <rect id="Rectangle_261" data-name="Rectangle 261" width="3" height="2" transform="translate(-0.415 0.004)" fill="#777"/>
            </g>
          </g>
        </g>
        <g id="Group_1211" data-name="Group 1211" transform="translate(25.334 -2.834)">
          <path id="Path_401" data-name="Path 401" d="M23.743,32H1.583A1.585,1.585,0,0,0,0,33.583v8.706A11.884,11.884,0,0,0,11.872,54.16h1.583A11.884,11.884,0,0,0,25.326,42.289V33.583A1.584,1.584,0,0,0,23.743,32Z" transform="translate(-7125.334 -12176.167)" fill="#777"/>
          <path id="Path_402" data-name="Path 402" d="M103.907,169.49a1.579,1.579,0,0,1-1.119-.464l-6.332-6.332a1.583,1.583,0,1,1,2.238-2.238l5.212,5.212,5.212-5.212a1.583,1.583,0,0,1,2.238,2.238l-6.332,6.332A1.579,1.579,0,0,1,103.907,169.49Z" transform="translate(-7216.578 -12297.828)" fill="#fafafa"/>
        </g>
        <g id="reddit" transform="translate(-7103.979 -12088)">
          <path id="Path_403" data-name="Path 403" d="M23.605,3.724a3.6,3.6,0,0,0,7.2-.1A3.5,3.5,0,0,0,27.2,0a3.452,3.452,0,0,0-3.125,1.768L18.321.043a1,1,0,0,0-1.259.705l-2.574,9.784A19.254,19.254,0,0,0,6.523,12.82c-3.707-3.473-8.776,2.186-5.476,6.106-2.374,7.418,6.149,13.2,15.021,13.2,8.942,0,17.365-5.876,15.021-13.2,3.29-3.907-1.741-9.575-5.481-6.109a19.613,19.613,0,0,0-9.035-2.324l2.164-8.229ZM27.2,2.008a1.509,1.509,0,0,1,1.594,1.617,1.594,1.594,0,1,1-3.188,0A1.5,1.5,0,0,1,27.2,2.008ZM4.733,13.993A11.542,11.542,0,0,0,2.114,16.74C1.605,14.85,3.237,13.217,4.733,13.993ZM16.068,30.115c-11.97,0-17.93-9.613-9.345-15.122a16.977,16.977,0,0,1,9.345-2.511c5.027,0,7.327,1.585,9.342,2.51C33.963,20.478,28.112,30.115,16.068,30.115ZM30.023,16.741A11.5,11.5,0,0,0,27.4,13.993c1.527-.788,3.125.875,2.621,2.748Z" transform="translate(0)" fill="#777"/>
          <path id="Path_404" data-name="Path 404" d="M11.806,15.682a2.88,2.88,0,0,0-2.967-2.953,2.953,2.953,0,1,0,0,5.905A2.9,2.9,0,0,0,11.806,15.682Zm-3.93,0a.888.888,0,0,1,.962-.945.945.945,0,1,1,0,1.89A.886.886,0,0,1,7.877,15.682Z" transform="translate(1.993 4.308)" fill="#777"/>
          <path id="Path_405" data-name="Path 405" d="M16.665,12.729a2.953,2.953,0,1,0,2.967,2.953,2.9,2.9,0,0,0-2.967-2.953Zm0,3.9a.945.945,0,1,1,.962-.945A.886.886,0,0,1,16.662,16.627Z" transform="translate(4.642 4.308)" fill="#777"/>
          <path id="Path_406" data-name="Path 406" d="M17.995,18.532c-1.48,2.03-7.3,2.056-8.824,0A1,1,0,0,0,7.509,19.66c2.129,3.215,10.016,3.216,12.145,0a1,1,0,0,0-1.66-1.128Z" transform="translate(2.487 6.122)" fill="#777"/>
        </g>
        <path id="telegram" d="M11.379,17.928l-.48,6.748a1.677,1.677,0,0,0,1.34-.649l3.218-3.075,6.668,4.883c1.223.682,2.084.323,2.414-1.125L28.916,4.2h0c.388-1.808-.654-2.515-1.845-2.071L1.346,11.978c-1.756.682-1.729,1.66-.3,2.1l6.577,2.046L22.9,6.568c.719-.476,1.373-.213.835.263Z" transform="translate(-7102.354 -12011.962)" fill="#777"/>
        <path id="vk" d="M31.3,17.619c-.61-.77-.435-1.113,0-1.8.008-.008,5.042-6.965,5.561-9.324l0,0c.258-.86,0-1.492-1.246-1.492H31.5A1.771,1.771,0,0,0,29.7,6.149a33.736,33.736,0,0,1-5.071,8.285c-.959.942-1.4,1.243-1.925,1.243-.258,0-.659-.3-.659-1.162V6.492C22.048,5.461,21.754,5,20.885,5H14.4a.987.987,0,0,0-1.05.929c0,.978,1.485,1.2,1.639,3.953V15.85c0,1.308-.237,1.548-.764,1.548-1.4,0-4.805-5.047-6.822-10.824C7,5.454,6.6,5,5.541,5H1.415C.237,5,0,5.544,0,6.151c0,1.072,1.4,6.4,6.52,13.444C9.931,24.4,14.734,27.005,19.1,27.005c2.627,0,2.947-.578,2.947-1.573,0-4.593-.237-5.027,1.078-5.027.61,0,1.66.3,4.112,2.62,2.8,2.749,3.263,3.98,4.832,3.98H36.2c1.176,0,1.771-.578,1.429-1.72C36.842,22.886,31.542,17.949,31.3,17.619Z" transform="translate(-7106.232 -11936.969)" fill="#777"/>
        <g id="diigo" transform="translate(-7113.666 -12214)">
          <circle id="Ellipse_124" data-name="Ellipse 124" cx="1.818" cy="1.818" r="1.818" transform="translate(106.666 0)" fill="#777"/>
          <circle id="Ellipse_125" data-name="Ellipse 125" cx="1.818" cy="1.818" r="1.818" transform="translate(115.758 0)" fill="#777"/>
          <path id="Path_375" data-name="Path 375" d="M119.058,111.588a.461.461,0,0,0-.511.212,6.356,6.356,0,0,1-11.032,0,.455.455,0,0,0-.848.227v16.156a.455.455,0,0,0,.455.455h2.728a.455.455,0,0,0,.455-.455V117.308a9.131,9.131,0,0,0,5.455,0v10.875a.455.455,0,0,0,.455.455h2.728a.455.455,0,0,0,.455-.455V112.027A.455.455,0,0,0,119.058,111.588Z" transform="translate(-0.001 -106.817)" fill="#777"/>
        </g>
        <g id="myspace" transform="translate(-7011 -12147)">
          <path id="Path_387" data-name="Path 387" d="M308.459,3.709a3.658,3.658,0,0,0-1.111-2.626A3.723,3.723,0,0,0,301,3.709a3.723,3.723,0,0,0,6.348,2.626A3.658,3.658,0,0,0,308.459,3.709Zm-3.75,2.472a2.473,2.473,0,1,1,2.514-2.472A2.475,2.475,0,0,1,304.709,6.181Zm0,0" transform="translate(-288.596)" fill="#777"/>
          <path id="Path_388" data-name="Path 388" d="M154.945,32.472a2.472,2.472,0,1,0-2.472,2.472A2.475,2.475,0,0,0,154.945,32.472Zm-2.472,1.236a1.236,1.236,0,1,1,1.236-1.236A1.238,1.238,0,0,1,152.473,33.709Zm0,0" transform="translate(-143.819 -28.764)" fill="#777"/>
          <path id="Path_389" data-name="Path 389" d="M0,153.091v5.6H4.945v2.473h6.181v3.75H21.1v-8.736A4.993,4.993,0,0,0,12.3,153a3.707,3.707,0,0,0-6.584-1.549A3.089,3.089,0,0,0,0,153.091Zm16.112-.618a3.734,3.734,0,0,1,3.75,3.709v7.5h-7.5v-7.5A3.734,3.734,0,0,1,16.112,152.473Zm-7.459-1.236a2.475,2.475,0,0,1,2.472,2.472v6.222H6.181v-6.222A2.475,2.475,0,0,1,8.654,151.236Zm-7.417,1.854a1.854,1.854,0,0,1,3.709,0v4.368H1.236Zm0,0" transform="translate(0 -143.819)" fill="#777"/>
          <path id="Path_390" data-name="Path 390" d="M33.709,61.854a1.854,1.854,0,1,0-1.854,1.854A1.857,1.857,0,0,0,33.709,61.854Zm-1.854.618a.618.618,0,1,1,.618-.618A.619.619,0,0,1,31.854,62.472Zm0,0" transform="translate(-28.764 -57.528)" fill="#777"/>
        </g>
        <path id="pinboard" d="M9.239.067a.877.877,0,0,0-.958.191L.258,8.281a.879.879,0,0,0,.621,1.5H3.905l6.412,7.471v4.259a.879.879,0,0,0,1.5.621l3.9-3.9L26.662,27.9a.875.875,0,0,0,1.2-.037.877.877,0,0,0,.033-1.2l-9.709-10.9,3.946-3.946a.878.878,0,0,0-.62-1.5l-4.265,0-7.469-6.4V.879A.88.88,0,0,0,9.239.067Zm7.115,11.791a.881.881,0,0,0,.571.211l2.469,0-7.32,7.319V16.926a.874.874,0,0,0-.212-.572L4.976,8.33a.88.88,0,0,0-.667-.306H3L8.024,3V4.318a.882.882,0,0,0,.307.668Z" transform="translate(-7015 -12086)" fill="#777"/>
        <g id="text" transform="translate(-7012.962 -12009.962)">
          <path id="Path_413" data-name="Path 413" d="M22.575,0H1.477A1.477,1.477,0,0,0,0,1.477v21.1a1.476,1.476,0,0,0,1.477,1.476h21.1a1.476,1.476,0,0,0,1.477-1.476V1.477A1.477,1.477,0,0,0,22.575,0ZM15.884,2.295a2.991,2.991,0,0,0-1.265.177,1.133,1.133,0,0,0-.825.687A10.529,10.529,0,0,0,13.666,5.3V18.619a9.153,9.153,0,0,0,.148,2.207,1.325,1.325,0,0,0,.569.666,3.03,3.03,0,0,0,1.5.265v.295H8.17v-.295q1.452,0,1.806-.559a5.669,5.669,0,0,0,.354-2.54V5.551a5.947,5.947,0,0,0-.393-2.7q-.392-.638-1.766-.559V2h7.715v.295Z" fill="#777"/>
        </g>
        <g id="xing" transform="translate(-7032 -11937)">
          <g id="Group_1207" data-name="Group 1207" transform="translate(27.383)">
            <g id="Group_1206" data-name="Group 1206">
              <path id="Path_422" data-name="Path 422" d="M217.213,0H209.76L198.688,19.395,205.822,31.9h7.453l-7.134-12.508Z" transform="translate(-198.688)" fill="#777"/>
            </g>
          </g>
          <g id="Group_1209" data-name="Group 1209" transform="translate(16 5.982)">
            <g id="Group_1208" data-name="Group 1208" transform="translate(0)">
              <path id="Path_423" data-name="Path 423" d="M24.3,96H17.274l4.066,7.16L16,111.951h7.027l5.34-8.791Z" transform="translate(-16 -96)" fill="#777"/>
            </g>
          </g>
        </g>
        <g id="email" transform="translate(-6935 -12293.609)">
          <g id="Group_1175" data-name="Group 1175" transform="translate(0 80.609)">
            <path id="Path_376" data-name="Path 376" d="M25.439,80.609H2.451A2.454,2.454,0,0,0,0,83.06V97.266a2.454,2.454,0,0,0,2.451,2.451H25.439a2.454,2.454,0,0,0,2.451-2.451V83.06A2.454,2.454,0,0,0,25.439,80.609Zm-.32,1.634-.327.272-9.874,8.222a1.52,1.52,0,0,1-1.945,0L3.1,82.516l-.327-.272ZM1.634,83.423l8.045,6.7L1.634,95.477Zm23.8,14.66H2.451a.818.818,0,0,1-.8-.654l9.339-6.215.937.78a3.154,3.154,0,0,0,4.037,0l.937-.78,9.339,6.215A.818.818,0,0,1,25.439,98.083Zm.817-2.606-8.045-5.354,8.045-6.7Z" transform="translate(0 -80.609)" fill="#777"/>
          </g>
        </g>
        <g id="logo" transform="translate(-6933 -12150)">
          <g id="Group_1183" data-name="Group 1183" transform="translate(0 2)">
            <path id="Path_384" data-name="Path 384" d="M9.814,9.464V2A11.759,11.759,0,0,0,0,13.633a11.48,11.48,0,0,0,2.784,7.614,12.064,12.064,0,0,0,5.084-4.715A13.315,13.315,0,0,0,9.814,9.464Z" transform="translate(0 -2.004)" fill="#777"/>
            <path id="Path_385" data-name="Path 385" d="M264.917,8.253A11.757,11.757,0,0,0,256.388,2V9.46a13.319,13.319,0,0,0,1.946,7.068,12.066,12.066,0,0,0,5.084,4.715,11.478,11.478,0,0,0,2.784-7.614A11.6,11.6,0,0,0,264.917,8.253Z" transform="translate(-242.575 -2)" fill="#777"/>
            <path id="Path_386" data-name="Path 386" d="M121.316,277.069a10.712,10.712,0,0,1-2.038-4.123,10.536,10.536,0,0,1-2.023,4.123,14.193,14.193,0,0,1-3.622,3.245,11.773,11.773,0,0,0,11.305,0A14.2,14.2,0,0,1,121.316,277.069Z" transform="translate(-107.511 -258.348)" fill="#777"/>
          </g>
        </g>
        <g id="blogger" transform="translate(-6935 -12086)">
          <path id="Path_353" data-name="Path 353" d="M23.332,9.08V7.689A7.7,7.7,0,0,0,15.644,0H7.688A7.7,7.7,0,0,0,0,7.689v12.5a7.7,7.7,0,0,0,7.688,7.689h12.5a7.7,7.7,0,0,0,7.688-7.689V12.233c0-2.524-2.012-3.259-4.545-3.154Zm2.8,11.108a5.954,5.954,0,0,1-5.946,5.947H7.688a5.954,5.954,0,0,1-5.946-5.947V7.689A5.954,5.954,0,0,1,7.688,1.742h7.955A5.954,5.954,0,0,1,21.59,7.689c.2,2.144-.685,3.256,1.572,3.143,1.62-.081,2.975-.045,2.975,1.4v7.952Z" transform="translate(0)" fill="#777"/>
          <path id="Path_354" data-name="Path 354" d="M8.443,11.02h4.545c3.415,0,3.409-5.151,0-5.151H8.443C5.028,5.87,5.033,11.02,8.443,11.02Zm0-3.408h4.545a.833.833,0,1,1,0,1.667H8.443a.833.833,0,1,1,0-1.667Z" transform="translate(0.95 0.948)" fill="#777"/>
          <path id="Path_355" data-name="Path 355" d="M17.533,13.7H8.442c-3.4,0-3.41,5.151,0,5.151h9.09c3.4,0,3.41-5.151,0-5.151Zm0,3.408H8.442a.833.833,0,0,1,0-1.667h9.09A.833.833,0,0,1,17.533,17.1Z" transform="translate(0.951 2.212)" fill="#777"/>
        </g>
        <g id="trello" transform="translate(-6934.518 -12011.518)">
          <path id="Path_414" data-name="Path 414" d="M5.322,22.294h4.751a2.4,2.4,0,0,0,2.4-2.4V5.322a2.4,2.4,0,0,0-2.4-2.4H5.322a2.4,2.4,0,0,0-2.4,2.4V19.9A2.4,2.4,0,0,0,5.322,22.294ZM4.637,5.322a.686.686,0,0,1,.686-.685h4.751a.685.685,0,0,1,.685.685V19.9a.685.685,0,0,1-.685.685H5.322a.686.686,0,0,1-.686-.685V5.322Z" transform="translate(0.414 0.414)" fill="#777"/>
          <path id="Path_415" data-name="Path 415" d="M4.066,27.4H23.328A4.071,4.071,0,0,0,27.4,23.329V4.066A4.071,4.071,0,0,0,23.328,0H4.066A4.071,4.071,0,0,0,0,4.066V23.328A4.071,4.071,0,0,0,4.066,27.4ZM1.712,4.066A2.356,2.356,0,0,1,4.066,1.712H23.328a2.357,2.357,0,0,1,2.355,2.354V23.328a2.357,2.357,0,0,1-2.355,2.354H4.066a2.356,2.356,0,0,1-2.354-2.354Z" fill="#777"/>
          <path id="Path_416" data-name="Path 416" d="M15.11,15.911h4.751a2.4,2.4,0,0,0,2.4-2.4V5.322a2.4,2.4,0,0,0-2.4-2.4H15.109a2.4,2.4,0,0,0-2.4,2.4v8.192A2.4,2.4,0,0,0,15.11,15.911ZM14.425,5.322a.685.685,0,0,1,.685-.685h4.751a.686.686,0,0,1,.686.685v8.192a.685.685,0,0,1-.685.685H15.111a.686.686,0,0,1-.686-.685Z" transform="translate(1.798 0.414)" fill="#777"/>
        </g>
        <g id="yahoo" transform="translate(-6935 -11937.029)">
          <g id="Group_1210" data-name="Group 1210" transform="translate(0 2.028)">
            <path id="Path_424" data-name="Path 424" d="M16.38,5.843l.236,2.84L20,9.5c-.36,1.13-1.92,3.379-4.652,6.7-2.177-4.33-3.981-8.113-5.254-11.019l3.851-.6.237-2.564H0v2.85l4.1.888a65.088,65.088,0,0,1,4.08,7.194c2.687,5.186,3.157,6.505,3.237,6.819l.064,2.686V23.84a21.854,21.854,0,0,1-.124,3.447c-.008.011-.195.283-1.439.412l-2.341.131-.362,2.808H20.507L21.3,27.61,16.972,27.5l-.24-3.557.2-4.16c.152-.641.92-2.13,3.665-5.587,2.8-3.616,3.569-4.313,3.736-4.389L27.693,8.68l1.148-2.838H16.38Z" transform="translate(0 -2.028)" fill="#777"/>
          </g>
        </g>
      </g>
    </g>
    <g id="Group_1218" data-name="Group 1218" transform="translate(24 -79)">
      <g transform="matrix(1, 0, 0, 1, 949, 255)" filter="url(#Rectangle_264)">
        <rect id="Rectangle_264-2" data-name="Rectangle 264" width="281" height="212" rx="8" transform="translate(372 231)" fill="#fff"/>
      </g>
      <g id="Group_1217" data-name="Group 1217" transform="translate(-12251 -9369)">
        <rect id="Rectangle_206" data-name="Rectangle 206" width="199" height="42" rx="3" transform="translate(13613 9893)" fill="#3f67c0"/>
        <rect id="Rectangle_209" data-name="Rectangle 209" width="199" height="41" rx="3" transform="translate(13613 9941)" fill="#03a9f4"/>
        <rect id="Rectangle_211" data-name="Rectangle 211" width="199" height="42" rx="3" transform="translate(13613 9988)" fill="#d32f2f"/>
        <path id="Rectangle_207" data-name="Rectangle 207" d="M3,0H46a0,0,0,0,1,0,0V42a0,0,0,0,1,0,0H3a3,3,0,0,1-3-3V3A3,3,0,0,1,3,0Z" transform="translate(13613 9893)" fill="#2057d2"/>
        <path id="Rectangle_208" data-name="Rectangle 208" d="M3,0H46a0,0,0,0,1,0,0V41a0,0,0,0,1,0,0H3a3,3,0,0,1-3-3V3A3,3,0,0,1,3,0Z" transform="translate(13613 9941)" fill="#0091d2"/>
        <path id="Rectangle_210" data-name="Rectangle 210" d="M3,0H46a0,0,0,0,1,0,0V42a0,0,0,0,1,0,0H3a3,3,0,0,1-3-3V3A3,3,0,0,1,3,0Z" transform="translate(13613 9988)" fill="#bc0000"/>
        <path id="facebook-2" data-name="facebook" d="M139.3,7.766H135.06V4.942a1.413,1.413,0,0,1,1.412-1.412h1.412V0H135.06a4.236,4.236,0,0,0-4.236,4.236v3.53H128V11.3h2.824v11.3h4.236V11.3h2.824Z" transform="translate(13502.754 9901.934)" fill="#fff"/>
        <text id="Facebook-3" data-name="Facebook" transform="translate(13675 9922)" fill="#fff" font-size="20" font-family="Asap-Regular, Asap"><tspan x="0" y="0">Facebook</tspan></text>
        <text id="Twitter-2" data-name="Twitter" transform="translate(13675 9970)" fill="#fff" font-size="20" font-family="Asap-Regular, Asap"><tspan x="0" y="0">Twitter</tspan></text>
        <text id="Pinterest-2" data-name="Pinterest" transform="translate(13675 10017)" fill="#fff" font-size="20" font-family="Asap-Regular, Asap"><tspan x="0" y="0">Pinterest</tspan></text>
        <path id="twitter-3" data-name="twitter" d="M25.727,50.475a11,11,0,0,1-3.039.833,5.245,5.245,0,0,0,2.32-2.915,10.54,10.54,0,0,1-3.344,1.277,5.274,5.274,0,0,0-9.123,3.607,5.431,5.431,0,0,0,.122,1.2A14.929,14.929,0,0,1,1.791,48.962a5.276,5.276,0,0,0,1.621,7.049,5.209,5.209,0,0,1-2.383-.65v.058A5.3,5.3,0,0,0,5.255,60.6a5.264,5.264,0,0,1-1.383.174,4.663,4.663,0,0,1-1-.09A5.324,5.324,0,0,0,7.8,64.359a10.6,10.6,0,0,1-6.539,2.249A9.877,9.877,0,0,1,0,66.536,14.848,14.848,0,0,0,8.091,68.9,14.908,14.908,0,0,0,23.1,53.895c0-.233-.008-.458-.019-.682A10.522,10.522,0,0,0,25.727,50.475Z" transform="translate(13623.867 9902.663)" fill="#fff"/>
        <path id="pinterest-3" data-name="pinterest" d="M59.19,0C51.888,0,48,4.68,48,9.782c0,2.366,1.322,5.317,3.439,6.253.321.145.5.083.568-.215.063-.226.341-1.317.476-1.832a.471.471,0,0,0-.113-.463,6.068,6.068,0,0,1-1.261-3.682c0-3.559,2.829-7.014,7.644-7.014,4.163,0,7.076,2.7,7.076,6.573,0,4.372-2.313,7.4-5.319,7.4A2.381,2.381,0,0,1,58,13.877c.475-1.923,1.406-3.992,1.406-5.379a2.066,2.066,0,0,0-2.138-2.273c-1.694,0-3.068,1.677-3.068,3.929a5.6,5.6,0,0,0,.506,2.4s-1.675,6.768-1.987,8.032a17.973,17.973,0,0,0,.123,5.9.176.176,0,0,0,.32.082,20.982,20.982,0,0,0,2.758-5.194c.206-.761,1.054-3.847,1.054-3.847a4.6,4.6,0,0,0,3.884,1.852c5.1,0,8.79-4.485,8.79-10.05C69.633,3.992,65.067,0,59.19,0" transform="translate(13576.528 9995.352)" fill="#fff"/>
      </g>
    </g>
    <g id="Group_1216" data-name="Group 1216" transform="translate(60 -2180.331)">
      <g transform="matrix(1, 0, 0, 1, 913, 2356.33)" filter="url(#Ellipse_67)">
        <circle id="Ellipse_67-2" data-name="Ellipse 67" cx="35" cy="35" r="35" transform="translate(337 214)" fill="#fff"/>
      </g>
      <g id="Group_528" data-name="Group 528" transform="translate(1272.215 2592.048)">
        <rect id="Rectangle_154" data-name="Rectangle 154" width="12.714" height="2.789" transform="translate(7.157 11.043) rotate(-30)" fill="#c7c7c7"/>
        <rect id="Rectangle_155" data-name="Rectangle 155" width="12.714" height="2.789" transform="matrix(0.841, 0.541, -0.541, 0.841, 9.646, 13.224)" fill="#c7c7c7"/>
        <circle id="Ellipse_34" data-name="Ellipse 34" cx="4.895" cy="4.895" r="4.895" transform="translate(17.425 0)" fill="#ff8a73"/>
        <circle id="Ellipse_35" data-name="Ellipse 35" cx="4.895" cy="4.895" r="4.895" transform="translate(0 8.829)" fill="#5580ff"/>
        <circle id="Ellipse_36" data-name="Ellipse 36" cx="4.895" cy="4.895" r="4.895" transform="translate(17.425 17.425)" fill="#ff8a73"/>
      </g>
    </g>
  </g>
</svg>
