<svg xmlns="http://www.w3.org/2000/svg" xmlns:xlink="http://www.w3.org/1999/xlink" width="380" height="380" viewBox="0 0 380 380">
  <defs>
    <filter id="Ellipse_112" x="0" y="0" width="380" height="380" filterUnits="userSpaceOnUse">
      <feOffset dy="10" input="SourceAlpha"/>
      <feGaussianBlur stdDeviation="20" result="blur"/>
      <feFlood flood-color="#ee5913" flood-opacity="0.302"/>
      <feComposite operator="in" in2="blur"/>
      <feComposite in="SourceGraphic"/>
    </filter>
    <linearGradient id="linear-gradient" x1="1.609" y1="-0.578" x2="-0.052" y2="1.056" gradientUnits="objectBoundingBox">
      <stop offset="0" stop-color="#f40076"/>
      <stop offset="1" stop-color="#fe9e45"/>
    </linearGradient>
  </defs>
  <g id="Group_1162" data-name="Group 1162" transform="translate(-523.603 -2196)">
    <path id="Polygon_1" data-name="Polygon 1" d="M143.005,5.087a7,7,0,0,1,9.99,0l7.724,7.866a7,7,0,0,0,8.614,1.088l9.443-5.7a7,7,0,0,1,9.677,2.485l5.518,9.531a7,7,0,0,0,8.074,3.2l10.565-3.178a7,7,0,0,1,8.757,4.814l2.969,10.593a7,7,0,0,0,7.029,5.1l11.018-.454a7,7,0,0,1,7.287,6.843L249.9,58.26a7,7,0,0,0,5.541,6.7l10.775,2.294a7,7,0,0,1,5.358,8.443l-2.5,10.694a7,7,0,0,0,3.7,7.866l9.856,4.893a7,7,0,0,1,3.091,9.513l-5.088,9.733a7,7,0,0,0,1.63,8.542l8.322,7.182a7,7,0,0,1,.628,9.984l-7.353,8.165a7,7,0,0,0-.546,8.68l6.269,9.019a7,7,0,0,1-1.874,9.826l-9.161,6.086a7,7,0,0,0-2.688,8.27l3.826,10.294a7,7,0,0,1-4.258,9.049l-10.4,3.623a7,7,0,0,0-4.659,7.339l1.143,10.926a7,7,0,0,1-6.373,7.7L244.162,244a7,7,0,0,0-6.335,5.947l-1.615,10.876a7,7,0,0,1-8.086,5.875l-10.877-1.83a7,7,0,0,0-7.611,4.183L205.361,279.2a7,7,0,0,1-9.29,3.678L185.988,278.4a7,7,0,0,0-8.41,2.159l-6.674,8.769a7,7,0,0,1-9.911,1.252l-8.652-6.839a7,7,0,0,0-8.682,0l-8.652,6.839a7,7,0,0,1-9.911-1.252l-6.674-8.769a7,7,0,0,0-8.41-2.159l-10.084,4.476a7,7,0,0,1-9.29-3.678l-4.277-10.142a7,7,0,0,0-7.612-4.183L67.873,266.7a7,7,0,0,1-8.086-5.875l-1.615-10.876A7,7,0,0,0,51.837,244l-10.983-.928a7,7,0,0,1-6.373-7.7l1.143-10.926a7,7,0,0,0-4.659-7.339l-10.4-3.623a7,7,0,0,1-4.258-9.049l3.826-10.294a7,7,0,0,0-2.688-8.27l-9.161-6.086a7,7,0,0,1-1.874-9.826l6.269-9.019a7,7,0,0,0-.546-8.68L4.784,144.1a7,7,0,0,1,.628-9.984l8.322-7.182a7,7,0,0,0,1.63-8.542l-5.088-9.733a7,7,0,0,1,3.091-9.513l9.856-4.893a7,7,0,0,0,3.7-7.866l-2.5-10.694a7,7,0,0,1,5.358-8.443l10.775-2.294a7,7,0,0,0,5.541-6.7l.237-10.987a7,7,0,0,1,7.287-6.843l11.018.454a7,7,0,0,0,7.029-5.1l2.969-10.593a7,7,0,0,1,8.757-4.814L93.956,23.55a7,7,0,0,0,8.074-3.2l5.518-9.531a7,7,0,0,1,9.677-2.485l9.443,5.7a7,7,0,0,0,8.614-1.088Z" transform="translate(563 2227)" fill="#ee5913"/>
    <g id="Group_1161" data-name="Group 1161" transform="translate(-0.397 1)">
      <g id="Group_1158" data-name="Group 1158" transform="translate(844.406 2336.316)">
        <path id="Path_1225" data-name="Path 1225" d="M705.636,257.078l22.282-2.275-26.185,58.374,5.2,54.006-30.416.673,12.951-22.1Z" transform="translate(-676.519 -254.803)" fill="#ee5913"/>
      </g>
      <g id="Group_1160" data-name="Group 1160" transform="translate(526.397 2338.959)">
        <path id="Path_1227" data-name="Path 1227" d="M240.278,260.853l-21.519-2.093L224.566,317l-24.1,54.128,30.224.422-5.239-22.027Z" transform="translate(-200.468 -258.759)" fill="#ee5913"/>
      </g>
      <g transform="matrix(1, 0, 0, 1, 524, 2195)" filter="url(#Ellipse_112)">
        <g id="Ellipse_112-2" data-name="Ellipse 112" transform="translate(60 50)" fill="#ee5913" stroke="#fff" stroke-width="2">
          <circle cx="130" cy="130" r="130" stroke="none"/>
          <circle cx="130" cy="130" r="129" fill="none"/>
        </g>
      </g>
      <g id="Ellipse_113" data-name="Ellipse 113" transform="translate(590 2251)" stroke="#fff" stroke-width="1" fill="url(#linear-gradient)">
        <circle cx="124" cy="124" r="124" stroke="none"/>
        <circle cx="124" cy="124" r="123.5" fill="none"/>
      </g>
      <path id="Path_1223" data-name="Path 1223" d="M255.164,235.356l308.006-3.414L543.805,338.165l-306.053,2.493Z" transform="translate(313.668 2089.103)" fill="#d55215"/>
      <text id="Money_Back" data-name="Money Back" transform="translate(713 2387)" fill="#fff" font-size="37" font-family="SegoeUI-Semibold, Segoe UI" font-weight="600"><tspan x="-102.5" y="0">Money Back</tspan></text>
      <text id="_100_" data-name="100%" transform="translate(714 2294)" fill="#fff" font-size="20" font-family="OpenSans-SemiBold, Open Sans" font-weight="600"><tspan x="-25.742" y="0">100%</tspan></text>
      <text id="Guarranty" transform="translate(713 2470)" fill="#fff" font-size="20" font-family="OpenSans-SemiBold, Open Sans" font-weight="600"><tspan x="-49.473" y="0">Guarranty</tspan></text>
    </g>
  </g>
</svg>
