<svg xmlns="http://www.w3.org/2000/svg" width="45.183" height="33.218" viewBox="0 0 45.183 33.218">
  <g id="Group_1227" data-name="Group 1227" transform="translate(-971.354 -3991)">
    <g id="Group_1079" data-name="Group 1079" transform="translate(-9550 218.91)">
      <path id="Path_97" data-name="Path 97" d="M2.733,343.039H42.45c2.733,0,2.733-2.572,2.733-4.471v-1.75H0v1.75C0,340.467.2,343.039,2.733,343.039Z" transform="translate(10521.354 3462.268)" fill="#eceaec"/>
      <path id="Path_83" data-name="Path 83" d="M96.065,75.764H54.322a1.72,1.72,0,0,0-1.72,1.72v5.092l22.591,1,22.591-1V77.484A1.72,1.72,0,0,0,96.065,75.764Z" transform="translate(10468.753 3696.326)" fill="#fa70b2"/>
      <path id="Path_84" data-name="Path 84" d="M97.785,157.213l-22.591,1-22.591-1v-20.12H97.785Z" transform="translate(10468.753 3641.809)" fill="#eceaec"/>
      <path id="Path_86" data-name="Path 86" d="M139.105,183.968V177.34a.573.573,0,0,0-.573-.573H106.3a.573.573,0,0,0-.573.573v6.628l16.691,1Z" transform="translate(10421.53 3606.542)" fill="#df667c"/>
      <path id="Path_87" data-name="Path 87" d="M106.3,243.667h32.234a.573.573,0,0,0,.573-.573V241.6h-33.38v1.49a.573.573,0,0,0,.573.573Z" transform="translate(10421.53 3548.907)" fill="#dc4857"/>
      <path id="Path_88" data-name="Path 88" d="M120.358,297.194l-7.316,1-7.316-1v-2.056a.573.573,0,0,1,.573-.573h13.486a.573.573,0,0,1,.573.573v2.056Z" transform="translate(10421.53 3501.827)" fill="#edc963"/>
      <path id="Path_89" data-name="Path 89" d="M289.166,297.194l-7.316,1-7.316-1v-2.056a.573.573,0,0,1,.573-.573h13.486a.573.573,0,0,1,.573.573v2.056Z" transform="translate(10271.472 3501.827)" fill="#edc963"/>
      <path id="Path_90" data-name="Path 90" d="M105.725,320.3l7.316,1,7.316-1v-2.064H105.725Z" transform="translate(10421.53 3480.785)" fill="#e7b93e"/>
      <path id="Path_91" data-name="Path 91" d="M274.533,320.3l7.316,1,7.316-1v-2.064H274.533Z" transform="translate(10271.472 3480.785)" fill="#e7b93e"/>
      <path id="Path_92" data-name="Path 92" d="M78.956,93.632a1.323,1.323,0,1,0,1.323,1.323A1.325,1.325,0,0,0,78.956,93.632Z" transform="translate(10446.502 3680.443)" fill="#df667c"/>
      <path id="Path_93" data-name="Path 93" d="M117.193,93.632a1.323,1.323,0,1,0,1.323,1.323A1.325,1.325,0,0,0,117.193,93.632Z" transform="translate(10412.512 3680.443)" fill="#edc963"/>
      <path id="Path_94" data-name="Path 94" d="M155.429,93.632a1.323,1.323,0,1,0,1.323,1.323A1.325,1.325,0,0,0,155.429,93.632Z" transform="translate(10378.522 3680.443)" fill="#b3e59f"/>
    </g>
  </g>
</svg>
