<svg id="color-wheel" xmlns="http://www.w3.org/2000/svg" width="42.42" height="42.42" viewBox="0 0 42.42 42.42">
  <path id="Path_35" data-name="Path 35" d="M97.45,81.9A15.545,15.545,0,1,1,92.9,70.91,15.5,15.5,0,0,1,97.45,81.9Z" transform="translate(-60.693 -60.693)" fill="#ececec"/>
  <path id="Path_36" data-name="Path 36" d="M9.066,225.033l-4.246-2.19L0,225.033a21.149,21.149,0,0,0,6.212,15l5.291-1.437,1.12-4.974A12.106,12.106,0,0,1,9.066,225.033Z" transform="translate(0 -203.823)" fill="#736acb"/>
  <path id="Path_37" data-name="Path 37" d="M87.778,0a21.149,21.149,0,0,0-15,6.212l1.233,5.47,5.177.941a12.106,12.106,0,0,1,8.587-3.557L90.6,4.82Z" transform="translate(-66.568)" fill="#5bd6fd"/>
  <path id="Path_38" data-name="Path 38" d="M355.521,72.78l-4.659.637-1.752,5.774a12.106,12.106,0,0,1,3.557,8.587l4.533,2.345,4.533-2.345A21.15,21.15,0,0,0,355.521,72.78Z" transform="translate(-319.313 -66.568)" fill="#fbc072"/>
  <path id="Path_39" data-name="Path 39" d="M232.721,349.908l-4.855-.8a12.106,12.106,0,0,1-8.587,3.557l-2.727,3.923,2.727,5.143a21.149,21.149,0,0,0,15-6.212Z" transform="translate(-198.069 -319.313)" fill="#ff71a7"/>
  <path id="Path_40" data-name="Path 40" d="M112.773,127.334a12.106,12.106,0,0,1,7.28-20.6,12.247,12.247,0,0,0-1.28-.067,12.106,12.106,0,1,0,0,24.212,12.245,12.245,0,0,0,1.28-.067A12.068,12.068,0,0,1,112.773,127.334Z" transform="translate(-97.563 -97.564)" fill="#dededc"/>
  <path id="Path_41" data-name="Path 41" d="M87.778,352.667v9.066a21.15,21.15,0,0,1-15-6.212l6.411-6.411A12.106,12.106,0,0,0,87.778,352.667Z" transform="translate(-66.568 -319.313)" fill="#918bd7"/>
  <path id="Path_42" data-name="Path 42" d="M361.733,248.5a21.15,21.15,0,0,1-6.212,15l-6.411-6.411a12.106,12.106,0,0,0,3.557-8.587Z" transform="translate(-319.313 -227.29)" fill="#ff97c0"/>
  <path id="Path_43" data-name="Path 43" d="M263.5,6.212l-6.411,6.411A12.106,12.106,0,0,0,248.5,9.066V0A21.149,21.149,0,0,1,263.5,6.212Z" transform="translate(-227.29)" fill="#f9f097"/>
  <path id="Path_44" data-name="Path 44" d="M12.623,79.191a12.106,12.106,0,0,0-3.557,8.587H0a21.149,21.149,0,0,1,6.212-15Z" transform="translate(0 -66.568)" fill="#a4e6ff"/>
  <g id="Group_1076" data-name="Group 1076" transform="translate(13.071 17.67)">
    <g id="Group_1073" data-name="Group 1073">
      <path id="Path_45" data-name="Path 45" d="M156.523,209.675a.64.64,0,0,1-.64-.64.731.731,0,1,0-1.462,0,.64.64,0,1,1-1.28,0,2.011,2.011,0,1,1,4.022,0A.64.64,0,0,1,156.523,209.675Z" transform="translate(-153.141 -207.024)" fill="#423e4f"/>
    </g>
    <g id="Group_1074" data-name="Group 1074" transform="translate(12.256)">
      <path id="Path_46" data-name="Path 46" d="M300.116,209.675a.64.64,0,0,1-.64-.64.731.731,0,1,0-1.462,0,.64.64,0,1,1-1.28,0,2.011,2.011,0,1,1,4.022,0A.64.64,0,0,1,300.116,209.675Z" transform="translate(-296.734 -207.024)" fill="#423e4f"/>
    </g>
    <g id="Group_1075" data-name="Group 1075" transform="translate(6.045 2.974)">
      <path id="Path_47" data-name="Path 47" d="M226.055,243.805a2.569,2.569,0,0,1-1.937-.882.64.64,0,1,1,.965-.841,1.287,1.287,0,0,0,1.944,0,.64.64,0,1,1,.965.841A2.569,2.569,0,0,1,226.055,243.805Z" transform="translate(-223.96 -241.862)" fill="#423e4f"/>
    </g>
  </g>
</svg>
