<svg id="color-wheel" xmlns="http://www.w3.org/2000/svg" width="48" height="48" viewBox="0 0 48 48">
  <path id="Path_35" data-name="Path 35" d="M101.54,83.948a17.59,17.59,0,1,1-5.152-12.439A17.536,17.536,0,0,1,101.54,83.948Z" transform="translate(-59.948 -59.948)" fill="#58c3e8"/>
  <path id="Path_36" data-name="Path 36" d="M10.259,225.321l-4.8-2.478L0,225.321a23.931,23.931,0,0,0,7.029,16.971l5.986-1.626,1.268-5.628A13.7,13.7,0,0,1,10.259,225.321Z" transform="translate(0 -201.321)" fill="#736acb"/>
  <path id="Path_37" data-name="Path 37" d="M89.751,0A23.931,23.931,0,0,0,72.78,7.029l1.4,6.189,5.858,1.065a13.7,13.7,0,0,1,9.717-4.024l3.193-4.8Z" transform="translate(-65.751)" fill="#5bd6fd"/>
  <path id="Path_38" data-name="Path 38" d="M356.364,72.78l-5.271.721-1.983,6.534a13.7,13.7,0,0,1,4.024,9.717l5.129,2.653,5.129-2.653A23.932,23.932,0,0,0,356.364,72.78Z" transform="translate(-315.393 -65.751)" fill="#fbc072"/>
  <path id="Path_39" data-name="Path 39" d="M234.848,350.012l-5.493-.9a13.7,13.7,0,0,1-9.717,4.024l-3.086,4.439,3.086,5.819a23.931,23.931,0,0,0,16.971-7.029Z" transform="translate(-195.638 -315.393)" fill="#ff71a7"/>
  <path id="Path_41" data-name="Path 41" d="M89.751,353.134v10.259a23.932,23.932,0,0,1-16.971-7.029l7.254-7.254A13.7,13.7,0,0,0,89.751,353.134Z" transform="translate(-65.751 -315.393)" fill="#918bd7"/>
  <path id="Path_42" data-name="Path 42" d="M363.393,248.5a23.932,23.932,0,0,1-7.029,16.971l-7.254-7.254a13.7,13.7,0,0,0,4.024-9.717Z" transform="translate(-315.393 -224.5)" fill="#ff97c0"/>
  <path id="Path_43" data-name="Path 43" d="M265.471,7.029l-7.254,7.254a13.7,13.7,0,0,0-9.717-4.024V0A23.931,23.931,0,0,1,265.471,7.029Z" transform="translate(-224.5)" fill="#f9f097"/>
  <path id="Path_44" data-name="Path 44" d="M14.283,80.034a13.7,13.7,0,0,0-4.024,9.717H0A23.931,23.931,0,0,1,7.029,72.78Z" transform="translate(0 -65.751)" fill="#a4e6ff"/>
</svg>
