<svg xmlns="http://www.w3.org/2000/svg" width="50" height="50" viewBox="0 0 50 50">
  <g id="Group_1082" data-name="Group 1082" transform="translate(-10120 -4543)">
    <g id="Group_1081" data-name="Group 1081" transform="translate(10121 4544)">
      <circle id="Ellipse_110" data-name="Ellipse 110" cx="24" cy="24" r="24" fill="#58c3e8" stroke="#fa70b2" stroke-width="2"/>
    </g>
    <path id="Path_100" data-name="Path 100" d="M140.151,113.5a.82.82,0,0,0-.846-.2l-17.562,5.9a.826.826,0,0,0-.062,1.541l4.6,1.971-5.438,5.443a.826.826,0,0,0,0,1.167l3.5,3.5a.824.824,0,0,0,1.166,0l5.438-5.442,1.969,4.6a.81.81,0,0,0,.791.5.824.824,0,0,0,.749-.562l5.9-17.576a.827.827,0,0,0-.2-.846Zm-17.9,2.235a.825.825,0,0,0-.825-.825H120.6v-8.255h3.3v.825a.825.825,0,1,0,1.65,0v-1.651a.825.825,0,0,0-.825-.825h-9.9a.825.825,0,0,0-.825.825v1.651a.825.825,0,1,0,1.65,0v-.825h3.3v8.255h-.825a.825.825,0,0,0,0,1.651h3.3A.825.825,0,0,0,122.248,115.732Z" transform="translate(10017.595 4448.729)" fill="#fff"/>
  </g>
</svg>
