<svg xmlns="http://www.w3.org/2000/svg" width="47" height="40.026" viewBox="0 0 47 40.026">
  <g id="Group_1219" data-name="Group 1219" transform="translate(-402 -1118)">
    <rect id="Rectangle_230" data-name="Rectangle 230" width="39" height="39" rx="19.5" transform="translate(410 1118)" fill="#fff5e6"/>
    <g id="pen" transform="translate(402 1126)">
      <g id="Group_1069" data-name="Group 1069">
        <g id="Group_1068" data-name="Group 1068">
          <path id="Path_14" data-name="Path 14" d="M31.087,0H27.334A.938.938,0,0,0,26.4.938v.938h-7.73a2.814,2.814,0,0,0-5.307,0H5.629V.938A.938.938,0,0,0,4.691,0H.938A.938.938,0,0,0,0,.938V4.691a.938.938,0,0,0,.938.938H4.691a.938.938,0,0,0,.938-.938V3.74h3.9a12.326,12.326,0,0,0-5.69,9.61,2.814,2.814,0,1,0,1.88.019,10.476,10.476,0,0,1,7.77-9.3,2.813,2.813,0,0,0,5.042,0,10.476,10.476,0,0,1,7.77,9.3,2.816,2.816,0,1,0,1.88-.019,12.3,12.3,0,0,0-5.69-9.6h3.9v.938a.938.938,0,0,0,.938.938h3.753a.938.938,0,0,0,.938-.938V.938A.938.938,0,0,0,31.087,0ZM3.753,3.753H1.876V1.876H3.753Zm1,13.2a.938.938,0,1,1,.938-.938A.939.939,0,0,1,4.754,16.951Zm11.259-13.2a.938.938,0,1,1,.938-.938A.939.939,0,0,1,16.013,3.753ZM27.272,15.075a.938.938,0,1,1-.938.938A.939.939,0,0,1,27.272,15.075ZM30.149,3.753H28.273V1.876h1.876Z" fill="#e2ae00"/>
        </g>
      </g>
      <g id="Group_1071" data-name="Group 1071" transform="translate(7.569 7.569)">
        <g id="Group_1070" data-name="Group 1070">
          <path id="Path_15" data-name="Path 15" d="M137.731,132.686l-7.506-11.259h0l-.008-.012c-.013-.019-.026-.037-.041-.054a.938.938,0,0,0-1.5.054l-.008.012h0l-7.506,11.259a.938.938,0,0,0,.117,1.184,11.887,11.887,0,0,1,3.388,6.937,4.837,4.837,0,0,0-.42.38,4.756,4.756,0,0,0-1.367,3.341.938.938,0,0,0,.938.938h11.259a.938.938,0,0,0,.938-.938,4.756,4.756,0,0,0-1.367-3.341,4.835,4.835,0,0,0-.42-.38,11.885,11.885,0,0,1,3.388-6.937A.938.938,0,0,0,137.731,132.686Zm-8.287-.418a.938.938,0,1,1-.938.938A.939.939,0,0,1,129.444,132.269Zm-4.531,11.322a2.866,2.866,0,0,1,2.655-1.939h3.753a2.866,2.866,0,0,1,2.655,1.939Zm7.549-3.673a4.61,4.61,0,0,0-1.141-.143h-3.753a4.606,4.606,0,0,0-1.141.143,13.768,13.768,0,0,0-3.293-6.812l5.373-8.059v5.507a2.815,2.815,0,1,0,1.876,0v-5.507l5.373,8.059A13.766,13.766,0,0,0,132.462,139.917Z" transform="translate(-121 -121.01)" fill="#e2ae00"/>
        </g>
      </g>
    </g>
  </g>
</svg>
