<svg xmlns="http://www.w3.org/2000/svg" width="44.001" height="36.426" viewBox="0 0 44.001 36.426">
  <g id="Group_1224" data-name="Group 1224" transform="translate(-1164 -1093)">
    <g id="Group_1223" data-name="Group 1223">
      <rect id="Rectangle_234" data-name="Rectangle 234" width="36" height="36" rx="18" transform="translate(1172.001 1093)" fill="#fce6e7"/>
      <g id="surface1" transform="translate(1164 1094)">
        <path id="Path_27" data-name="Path 27" d="M131.809,18.039A10.434,10.434,0,1,1,121.375,7.605,10.434,10.434,0,0,1,131.809,18.039Zm0,0" transform="translate(-102.961 -7.058)" fill="#58c3e8"/>
        <path id="Path_28" data-name="Path 28" d="M235.145,205.231A10.434,10.434,0,1,1,224.711,194.8,10.434,10.434,0,0,1,235.145,205.231Zm0,0" transform="translate(-198.864 -180.785)" fill="#ffd061"/>
        <path id="Path_29" data-name="Path 29" d="M221.793,201.908a10.446,10.446,0,0,0,12.354-6.818,10.446,10.446,0,0,0-12.354,6.818Zm0,0" transform="translate(-205.84 -180.785)" fill="#49bd90"/>
        <path id="Path_30" data-name="Path 30" d="M28.473,205.231A10.434,10.434,0,1,1,18.039,194.8,10.434,10.434,0,0,1,28.473,205.231Zm0,0" transform="translate(-7.058 -180.785)" fill="#fa70b2"/>
        <path id="Path_31" data-name="Path 31" d="M118.457,195.086a10.446,10.446,0,0,0,12.354,6.818,10.444,10.444,0,0,0-12.354-6.818Zm0,0" transform="translate(-109.937 -180.782)" fill="#af7bc6"/>
        <path id="Path_32" data-name="Path 32" d="M214.277,245.388a10.4,10.4,0,0,0,3,7.322,10.432,10.432,0,0,0,0-14.643A10.4,10.4,0,0,0,214.277,245.388Zm0,0" transform="translate(-198.864 -220.942)" fill="#ef6122"/>
        <path id="Path_33" data-name="Path 33" d="M226.714,242.065a10.514,10.514,0,0,1-4.921,0,10.44,10.44,0,0,1,2.46-4A10.44,10.44,0,0,1,226.714,242.065Zm0,0" transform="translate(-205.84 -220.942)" fill="#fff"/>
        <path id="Path_34" data-name="Path 34" d="M28.994,13.925a10.991,10.991,0,0,0-1.475-9.084.547.547,0,0,0-.906.613,9.9,9.9,0,0,1,1.318,8.21,10.967,10.967,0,0,0-9.517,2.706A10.968,10.968,0,0,0,8.9,13.664,9.888,9.888,0,0,1,25.4,3.99a.547.547,0,1,0,.774-.774A10.982,10.982,0,0,0,7.834,13.925a10.983,10.983,0,0,0,5.238,21.3.547.547,0,1,0-.207-1.074A9.888,9.888,0,0,1,8.18,14.963,11.033,11.033,0,0,0,15.267,21.5a10.968,10.968,0,0,0,2.385,10.245,9.9,9.9,0,0,1-2.823,1.809.547.547,0,0,0,.426,1.008,10.99,10.99,0,0,0,3.165-2.037,10.978,10.978,0,1,0,10.574-18.6Zm-1.423.784a9.933,9.933,0,0,1-6.356,5.755,11,11,0,0,0-2.034-3.313,9.881,9.881,0,0,1,8.39-2.441Zm-9.157,3.224a9.908,9.908,0,0,1,1.724,2.784,9.921,9.921,0,0,1-3.448,0A9.908,9.908,0,0,1,18.414,17.933ZM9.257,14.709a9.881,9.881,0,0,1,8.39,2.441,11,11,0,0,0-2.034,3.313A9.934,9.934,0,0,1,9.257,14.709Zm7.073,7.054a11,11,0,0,0,4.168,0,9.9,9.9,0,0,1-2.079,9.2,9.876,9.876,0,0,1-2.089-9.2Zm9.517,12.57a9.848,9.848,0,0,1-6.659-2.585A11,11,0,0,0,21.561,21.5a11.033,11.033,0,0,0,7.086-6.539,9.887,9.887,0,0,1-2.8,19.369Zm0,0"/>
      </g>
    </g>
  </g>
</svg>
