<svg xmlns="http://www.w3.org/2000/svg" width="41" height="36.005" viewBox="0 0 41 36.005">
  <g id="Group_1225" data-name="Group 1225" transform="translate(-1354 -1057)">
    <rect id="Rectangle_236" data-name="Rectangle 236" width="30" height="30" rx="15" transform="translate(1365 1057)" fill="#fce6e7"/>
    <g id="Group_1078" data-name="Group 1078" transform="translate(1354 1064)">
      <g id="Group_1077" data-name="Group 1077" transform="translate(0.425 0.425)">
        <path id="Path_48" data-name="Path 48" d="M9.812,9.9H8.589A.589.589,0,0,1,8,9.312V8.089A.589.589,0,0,1,8.589,7.5H9.812a.589.589,0,0,1,.589.589V9.312A.589.589,0,0,1,9.812,9.9Zm0,0" transform="translate(-8 -7.5)" fill="#fff"/>
        <path id="Path_49" data-name="Path 49" d="M236.636,9.9h-1.223a.589.589,0,0,1-.589-.589V8.089a.589.589,0,0,1,.589-.589h1.223a.589.589,0,0,1,.589.589V9.312A.589.589,0,0,1,236.636,9.9Zm0,0" transform="translate(-221.975 -7.5)" fill="#fff"/>
        <path id="Path_50" data-name="Path 50" d="M463.46,9.9h-1.222a.589.589,0,0,1-.589-.589V8.089a.589.589,0,0,1,.589-.589h1.222a.589.589,0,0,1,.589.589V9.312A.589.589,0,0,1,463.46,9.9Zm0,0" transform="translate(-435.949 -7.5)" fill="#fff"/>
        <path id="Path_51" data-name="Path 51" d="M9.812,464.529H8.589A.589.589,0,0,1,8,463.94v-1.222a.589.589,0,0,1,.589-.589H9.812a.589.589,0,0,1,.589.589v1.222A.589.589,0,0,1,9.812,464.529Zm0,0" transform="translate(-8 -436.374)" fill="#fff"/>
        <path id="Path_52" data-name="Path 52" d="M236.636,464.529h-1.223a.589.589,0,0,1-.589-.589v-1.222a.589.589,0,0,1,.589-.589h1.223a.589.589,0,0,1,.589.589v1.222A.589.589,0,0,1,236.636,464.529Zm0,0" transform="translate(-221.975 -436.374)" fill="#fff"/>
        <path id="Path_53" data-name="Path 53" d="M9.812,237.214H8.589A.589.589,0,0,1,8,236.625V235.4a.589.589,0,0,1,.589-.589H9.812a.589.589,0,0,1,.589.589v1.222A.589.589,0,0,1,9.812,237.214Zm0,0" transform="translate(-8 -221.935)" fill="#fff"/>
        <path id="Path_54" data-name="Path 54" d="M463.46,237.214h-1.222a.589.589,0,0,1-.589-.589V235.4a.589.589,0,0,1,.589-.589h1.222a.589.589,0,0,1,.589.589v1.222A.589.589,0,0,1,463.46,237.214Zm0,0" transform="translate(-435.949 -221.935)" fill="#fff"/>
      </g>
      <path id="Path_55" data-name="Path 55" d="M394,389.217V393.4a.589.589,0,0,1-.589.589h-4.185a.589.589,0,0,1-.416-1.006L393,388.8A.589.589,0,0,1,394,389.217Zm0,0" transform="translate(-366.648 -366.611)" fill="#fff"/>
      <path id="Path_56" data-name="Path 56" d="M100.5,173.906l-7.7,7.7a2.55,2.55,0,0,1-2.139.726.714.714,0,0,0-.752.413,3.543,3.543,0,0,1-.748,1.077c-.957.957-2.222,1.242-2.827.638s-.319-1.87.638-2.827a3.549,3.549,0,0,1,1.077-.749.714.714,0,0,0,.413-.752A2.55,2.55,0,0,1,89.183,178l7.7-7.7Zm0,0" transform="translate(-81.168 -160.646)" fill="#e3f4ff"/>
      <path id="Path_57" data-name="Path 57" d="M261,171.253l.96-.96,3.613,3.613-.96.96Zm0,0" transform="translate(-246.239 -160.645)" fill="#bddff4"/>
      <path id="Path_58" data-name="Path 58" d="M100.83,219.05l-7.7,7.7a2.55,2.55,0,0,1-2.139.726.714.714,0,0,0-.752.413,3.543,3.543,0,0,1-.748,1.077c-.957.957-2.222,1.242-2.827.638a1.084,1.084,0,0,1-.3-.6,2.772,2.772,0,0,0,2.222-.935,3.56,3.56,0,0,0,.748-1.077.714.714,0,0,1,.752-.413,2.549,2.549,0,0,0,2.139-.725l7.7-7.7Zm0,0" transform="translate(-81.499 -205.791)" fill="#bddff4"/>
      <path id="Path_59" data-name="Path 59" d="M257.929,93.653l-.876-.876a.647.647,0,0,1,0-.914l2.355-2.355A2.055,2.055,0,0,0,256.5,86.6l-2.355,2.355a.647.647,0,0,1-.914,0l-.876-.876a.647.647,0,0,0-.914,0l-1.212,1.212a.647.647,0,0,0,0,.914l5.573,5.573a.646.646,0,0,0,.914,0l1.212-1.212A.647.647,0,0,0,257.929,93.653Zm0,0" transform="translate(-235.903 -81.127)" fill="#ffdb61"/>
      <path id="Path_60" data-name="Path 60" d="M239.578,302.885a.424.424,0,0,0,.3-.125l1.177-1.177a.425.425,0,1,0-.6-.6l-1.177,1.177a.425.425,0,0,0,.3.725Zm0,0" transform="translate(-225.633 -283.814)" fill="#e2ae00"/>
      <path id="Path_61" data-name="Path 61" d="M93.672,89.005a1.071,1.071,0,0,0,1.515,0L96.4,87.793a1.072,1.072,0,0,0,0-1.515l-.876-.876a.222.222,0,0,1,0-.313l2.355-2.355a2.48,2.48,0,0,0-3.507-3.507l-2.355,2.355a.227.227,0,0,1-.313,0l-.876-.876a1.071,1.071,0,0,0-1.515,0L88.1,81.917a1.073,1.073,0,0,0,0,1.515l.68.68L81.787,91.1a2.959,2.959,0,0,0-.847,2.5.29.29,0,0,1-.162.307,4,4,0,0,0-1.207.838c-1.14,1.14-1.42,2.646-.638,3.428a1.587,1.587,0,0,0,1.153.443,3.373,3.373,0,0,0,2.275-1.08,3.994,3.994,0,0,0,.838-1.207.29.29,0,0,1,.307-.162A2.958,2.958,0,0,0,86,95.316l1.009-1.009a.425.425,0,0,0-.6-.6L85.4,94.716a2.114,2.114,0,0,1-1.784.605,1.144,1.144,0,0,0-1.2.664,3.142,3.142,0,0,1-.66.946c-.677.677-1.758,1.106-2.226.638s-.039-1.549.638-2.226a3.143,3.143,0,0,1,.946-.66,1.143,1.143,0,0,0,.664-1.2,2.116,2.116,0,0,1,.605-1.784l6.991-6.991,3.012,3.012L90.2,89.913a.425.425,0,1,0,.6.6l2.189-2.188ZM88.7,82.518l1.212-1.212a.222.222,0,0,1,.314,0l.876.876a1.073,1.073,0,0,0,1.515,0l2.355-2.355a1.63,1.63,0,0,1,2.305,2.305l-2.355,2.355a1.073,1.073,0,0,0,0,1.515l.876.876a.221.221,0,0,1,0,.314L94.586,88.4a.222.222,0,0,1-.313,0L88.7,82.831a.222.222,0,0,1,0-.314Zm0,0" transform="translate(-74.073 -74.053)" fill="#e2ae00"/>
      <path id="Path_62" data-name="Path 62" d="M351.2,107.2a.425.425,0,0,0-.6-.6l-1.25,1.25a.425.425,0,1,0,.6.6Zm0,0" transform="translate(-329.469 -100.439)" fill="#e2ae00"/>
      <path id="Path_63" data-name="Path 63" d="M177.336,218.509a.425.425,0,0,0-.6,0l-4.882,4.882a.425.425,0,1,0,.6.6l4.882-4.882A.425.425,0,0,0,177.336,218.509Zm0,0" transform="translate(-162.028 -206.013)" fill="#e2ae00"/>
      <path id="Path_64" data-name="Path 64" d="M304.761,319.342h.293a.425.425,0,0,0,0-.85h-.293a.425.425,0,0,0,0,.85Zm0,0" transform="translate(-287.123 -300.449)" fill="#e2ae00"/>
      <path id="Path_65" data-name="Path 65" d="M332.348,318.492h-2.4a.425.425,0,0,0,0,.85h2.4a.425.425,0,1,0,0-.85Zm0,0" transform="translate(-310.883 -300.449)" fill="#e2ae00"/>
      <path id="Path_66" data-name="Path 66" d="M304.761,344.342h3.826a.425.425,0,1,0,0-.85h-3.826a.425.425,0,0,0,0,.85Zm0,0" transform="translate(-287.123 -324.033)" fill="#e2ae00"/>
      <path id="Path_67" data-name="Path 67" d="M309.012,368.917a.425.425,0,0,0-.425-.425h-3.826a.425.425,0,1,0,0,.85h3.826A.425.425,0,0,0,309.012,368.917Zm0,0" transform="translate(-287.123 -347.616)" fill="#e2ae00"/>
      <path id="Path_68" data-name="Path 68" d="M28.436,3.25A1.015,1.015,0,0,0,29.45,2.237V1.014A1.015,1.015,0,0,0,28.436,0H27.214A1.015,1.015,0,0,0,26.2,1.014V1.2H16.6V1.014A1.015,1.015,0,0,0,15.587,0H14.364A1.015,1.015,0,0,0,13.35,1.014V1.2h-9.6V1.014A1.015,1.015,0,0,0,2.737,0H1.514A1.015,1.015,0,0,0,.5,1.014V2.237A1.015,1.015,0,0,0,1.514,3.25h.159v9.627H1.514A1.015,1.015,0,0,0,.5,13.892v1.222a1.015,1.015,0,0,0,1.014,1.014h.159v9.627H1.514A1.015,1.015,0,0,0,.5,26.769v1.222a1.015,1.015,0,0,0,1.014,1.014H2.737a1.015,1.015,0,0,0,1.014-1.014v-.186h9.6v.186a1.015,1.015,0,0,0,1.014,1.014h1.222A1.015,1.015,0,0,0,16.6,27.992V26.769a1.015,1.015,0,0,0-1.014-1.014H14.364a1.015,1.015,0,0,0-1.014,1.014v.186h-9.6v-.186a1.015,1.015,0,0,0-1.014-1.014H2.523V16.128h.214a1.015,1.015,0,0,0,1.014-1.014V13.892a1.015,1.015,0,0,0-1.014-1.014H2.523V3.25h.214A1.015,1.015,0,0,0,3.751,2.237V2.05h9.6v.186A1.015,1.015,0,0,0,14.364,3.25h1.222A1.015,1.015,0,0,0,16.6,2.237V2.05h9.6v.186A1.015,1.015,0,0,0,27.214,3.25h.214v9.627h-.214A1.015,1.015,0,0,0,26.2,13.892v1.222a1.015,1.015,0,0,0,1.014,1.014h1.222a1.015,1.015,0,0,0,1.014-1.014V13.892a1.015,1.015,0,0,0-1.014-1.014h-.159V3.25ZM14.2,26.769a.164.164,0,0,1,.164-.164h1.222a.164.164,0,0,1,.164.164v1.222a.164.164,0,0,1-.164.164H14.364a.164.164,0,0,1-.164-.164Zm-11.3,0v1.222a.164.164,0,0,1-.164.164H1.514a.164.164,0,0,1-.164-.164V26.769a.164.164,0,0,1,.164-.164H2.737A.164.164,0,0,1,2.9,26.769Zm0-12.878v1.222a.164.164,0,0,1-.164.164H1.514a.164.164,0,0,1-.164-.164V13.892a.164.164,0,0,1,.164-.164H2.737A.164.164,0,0,1,2.9,13.892Zm0-11.655a.164.164,0,0,1-.164.164H1.514a.164.164,0,0,1-.164-.164V1.014A.164.164,0,0,1,1.514.85H2.737a.164.164,0,0,1,.164.164Zm12.85,0a.164.164,0,0,1-.164.164H14.364a.164.164,0,0,1-.164-.164V1.014A.164.164,0,0,1,14.364.85h1.222a.164.164,0,0,1,.164.164ZM28.6,13.892v1.222a.164.164,0,0,1-.164.164H27.214a.164.164,0,0,1-.164-.164V13.892a.164.164,0,0,1,.164-.164h1.222A.164.164,0,0,1,28.6,13.892ZM27.05,2.236V1.014A.164.164,0,0,1,27.214.85h1.222a.164.164,0,0,1,.164.164V2.236a.164.164,0,0,1-.164.164H27.214A.164.164,0,0,1,27.05,2.236Zm0,0" transform="translate(-0.5 0)" fill="#4d4dff"/>
      <path id="Path_69" data-name="Path 69" d="M386.736,381.218a1.011,1.011,0,0,0-1.105.22l-1.384,1.384a.425.425,0,0,0,.6.6l1.383-1.384a.164.164,0,0,1,.28.116v4.185a.164.164,0,0,1-.164.164h-4.185a.164.164,0,0,1-.116-.28l1.493-1.493a.425.425,0,0,0-.6-.6l-1.493,1.493a1.014,1.014,0,0,0,.717,1.731h4.185a1.015,1.015,0,0,0,1.014-1.014v-4.185A1.011,1.011,0,0,0,386.736,381.218Zm0,0" transform="translate(-359.584 -359.548)" fill="#4d4dff"/>
    </g>
  </g>
</svg>
