<svg xmlns="http://www.w3.org/2000/svg" width="44.3" height="54.524" viewBox="0 0 44.3 54.524">
  <path id="pinterest" d="M70.9,0C55.951,0,48,9.576,48,20.018c0,4.843,2.706,10.882,7.037,12.8.658.3,1.016.17,1.162-.44.13-.463.7-2.7.975-3.749a.964.964,0,0,0-.232-.947,12.417,12.417,0,0,1-2.58-7.535c0-7.283,5.79-14.354,15.642-14.354,8.52,0,14.48,5.534,14.48,13.451,0,8.946-4.734,15.135-10.885,15.135-3.4,0-5.94-2.672-5.136-5.978.971-3.936,2.876-8.169,2.876-11.008,0-2.546-1.438-4.652-4.376-4.652-3.466,0-6.277,3.432-6.277,8.039a11.462,11.462,0,0,0,1.036,4.9S58.3,39.532,57.662,42.119c-1.077,4.379.147,11.471.252,12.081a.359.359,0,0,0,.654.167c.337-.443,4.481-6.356,5.644-10.629.423-1.557,2.157-7.872,2.157-7.872,1.142,2.062,4.437,3.79,7.947,3.79,10.442,0,17.987-9.178,17.987-20.567C92.266,8.169,82.922,0,70.9,0" transform="translate(-48.004)" fill="#d32f2f"/>
</svg>
