<svg id="skype" xmlns="http://www.w3.org/2000/svg" width="51.598" height="51.598" viewBox="0 0 51.598 51.598">
  <path id="Path_74" data-name="Path 74" d="M50.682,26.067A24.438,24.438,0,0,0,26.073,1.8a25.181,25.181,0,0,0-4.208.355A14.361,14.361,0,0,0,14.273,0,14.171,14.171,0,0,0,0,14.073a13.868,13.868,0,0,0,1.961,7.117,24.07,24.07,0,0,0-.5,4.876A24.441,24.441,0,0,0,26.07,50.334a25.316,25.316,0,0,0,4.508-.406,14.385,14.385,0,0,0,6.75,1.67A14.172,14.172,0,0,0,51.6,37.528a13.858,13.858,0,0,0-1.483-6.25A23.962,23.962,0,0,0,50.682,26.067Z" fill="#03a9f4"/>
  <path id="Path_75" data-name="Path 75" d="M141.912,117.946a11.154,11.154,0,0,1-5,3.738,20.3,20.3,0,0,1-7.688,1.338,18.979,18.979,0,0,1-8.814-1.825,11.438,11.438,0,0,1-4.05-3.547,7.628,7.628,0,0,1-1.574-4.386,3.022,3.022,0,0,1,1.026-2.286,3.63,3.63,0,0,1,2.57-.942,3.291,3.291,0,0,1,2.167.742,5.606,5.606,0,0,1,1.442,2.08,12,12,0,0,0,1.409,2.467,5.474,5.474,0,0,0,2.067,1.58,8.646,8.646,0,0,0,3.573.629,8.777,8.777,0,0,0,4.957-1.274,3.544,3.544,0,0,0,1.822-3.028,2.973,2.973,0,0,0-.948-2.3,6.785,6.785,0,0,0-2.625-1.432c-1.119-.342-2.638-.716-4.515-1.1a35.82,35.82,0,0,1-6.45-1.9,10.659,10.659,0,0,1-4.228-3.048,7.523,7.523,0,0,1-1.593-4.866,7.808,7.808,0,0,1,1.67-4.908,10.359,10.359,0,0,1,4.779-3.273,21.148,21.148,0,0,1,7.221-1.119,19.728,19.728,0,0,1,5.744.748,12.715,12.715,0,0,1,4.063,2,8.712,8.712,0,0,1,2.393,2.654,5.793,5.793,0,0,1,.771,2.767,3.273,3.273,0,0,1-1.009,2.341,3.415,3.415,0,0,1-2.528,1.038,3.153,3.153,0,0,1-2.119-.651,7.9,7.9,0,0,1-1.471-1.928,8.084,8.084,0,0,0-2.209-2.7,7,7,0,0,0-4.112-.932,7.783,7.783,0,0,0-4.263,1.038,2.768,2.768,0,0,0-1.525,2.325,2.106,2.106,0,0,0,.493,1.409,4.356,4.356,0,0,0,1.467,1.1,10.916,10.916,0,0,0,1.98.758c.684.187,1.828.468,3.405.826,1.993.419,3.821.893,5.44,1.406a17.437,17.437,0,0,1,4.215,1.893,8.349,8.349,0,0,1,2.773,2.886,8.567,8.567,0,0,1,1,4.276A9.135,9.135,0,0,1,141.912,117.946Z" transform="translate(-103.216 -80.283)" fill="#fafafa"/>
</svg>
