<svg id="surface1" xmlns="http://www.w3.org/2000/svg" width="43.352" height="41.702" viewBox="0 0 43.352 41.702">
  <path id="Path_27" data-name="Path 27" d="M135.506,19.888A12.282,12.282,0,1,1,123.223,7.605,12.282,12.282,0,0,1,135.506,19.888Zm0,0" transform="translate(-101.548 -6.962)" fill="#58c3e8"/>
  <path id="Path_28" data-name="Path 28" d="M238.842,207.079A12.282,12.282,0,1,1,226.559,194.8,12.282,12.282,0,0,1,238.842,207.079Zm0,0" transform="translate(-196.134 -178.303)" fill="#ffd061"/>
  <path id="Path_29" data-name="Path 29" d="M221.793,203.167a12.3,12.3,0,0,0,14.542-8.026,12.3,12.3,0,0,0-14.542,8.026Zm0,0" transform="translate(-203.014 -178.303)" fill="#49bd90"/>
  <path id="Path_30" data-name="Path 30" d="M32.17,207.079A12.282,12.282,0,1,1,19.888,194.8,12.282,12.282,0,0,1,32.17,207.079Zm0,0" transform="translate(-6.962 -178.303)" fill="#fa70b2"/>
  <path id="Path_31" data-name="Path 31" d="M118.457,195.138A12.3,12.3,0,0,0,133,203.164a12.295,12.295,0,0,0-14.542-8.026Zm0,0" transform="translate(-108.427 -178.3)" fill="#af7bc6"/>
  <path id="Path_32" data-name="Path 32" d="M214.277,246.685a12.242,12.242,0,0,0,3.533,8.619,12.28,12.28,0,0,0,0-17.237A12.242,12.242,0,0,0,214.277,246.685Zm0,0" transform="translate(-196.134 -217.909)" fill="#ef6122"/>
  <path id="Path_33" data-name="Path 33" d="M227.586,242.774a12.377,12.377,0,0,1-5.793,0,12.289,12.289,0,0,1,2.9-4.708A12.289,12.289,0,0,1,227.586,242.774Zm0,0" transform="translate(-203.014 -217.909)" fill="#fff"/>
  <path id="Path_34" data-name="Path 34" d="M34.13,16.391A12.938,12.938,0,0,0,32.394,5.7a.644.644,0,0,0-1.067.721,11.653,11.653,0,0,1,1.552,9.665,12.91,12.91,0,0,0-11.2,3.186,12.911,12.911,0,0,0-11.2-3.186A11.639,11.639,0,0,1,29.905,4.7a.644.644,0,1,0,.911-.911A12.927,12.927,0,0,0,9.222,16.391a12.928,12.928,0,0,0,6.166,25.076.644.644,0,1,0-.244-1.264A11.64,11.64,0,0,1,9.63,17.614a12.988,12.988,0,0,0,8.342,7.7A12.911,12.911,0,0,0,20.779,37.37a11.651,11.651,0,0,1-3.323,2.13.644.644,0,0,0,.5,1.186,12.937,12.937,0,0,0,3.725-2.4,12.923,12.923,0,1,0,12.447-21.9Zm-1.675.923a11.693,11.693,0,0,1-7.482,6.774,12.943,12.943,0,0,0-2.394-3.9,11.631,11.631,0,0,1,9.876-2.874Zm-10.779,3.8A11.663,11.663,0,0,1,23.7,24.387a11.678,11.678,0,0,1-4.058,0A11.663,11.663,0,0,1,21.676,21.11ZM10.9,17.315a11.631,11.631,0,0,1,9.876,2.874,12.943,12.943,0,0,0-2.394,3.9A11.694,11.694,0,0,1,10.9,17.315Zm8.326,8.3a12.951,12.951,0,0,0,4.906,0,11.656,11.656,0,0,1-2.447,10.831,11.626,11.626,0,0,1-2.459-10.831Zm11.2,14.8a11.593,11.593,0,0,1-7.838-3.043A12.946,12.946,0,0,0,25.38,25.311a12.987,12.987,0,0,0,8.342-7.7,11.639,11.639,0,0,1-3.3,22.8Zm0,0" fill="#fff"/>
</svg>
