<svg xmlns="http://www.w3.org/2000/svg" width="55.385" height="45" viewBox="0 0 55.385 45">
  <path id="twitter" d="M55.385,53.327a23.673,23.673,0,0,1-6.542,1.793,11.291,11.291,0,0,0,4.995-6.276,22.691,22.691,0,0,1-7.2,2.748A11.354,11.354,0,0,0,27,59.357a11.691,11.691,0,0,0,.263,2.589A32.139,32.139,0,0,1,3.856,50.07,11.357,11.357,0,0,0,7.345,65.245a11.213,11.213,0,0,1-5.13-1.4v.125a11.407,11.407,0,0,0,9.1,11.157,11.333,11.333,0,0,1-2.977.374,10.039,10.039,0,0,1-2.15-.194,11.462,11.462,0,0,0,10.61,7.91A22.814,22.814,0,0,1,2.717,88.06,21.267,21.267,0,0,1,0,87.9,31.966,31.966,0,0,0,17.418,93c20.894,0,32.317-17.308,32.317-32.31,0-.5-.017-.987-.042-1.468A22.651,22.651,0,0,0,55.385,53.327Z" transform="translate(0 -48)" fill="#03a9f4"/>
</svg>
