<svg id="whatsapp" xmlns="http://www.w3.org/2000/svg" width="49.139" height="49.139" viewBox="0 0 49.139 49.139">
  <path id="Path_76" data-name="Path 76" d="M24.575,0h-.012A24.554,24.554,0,0,0,4.677,38.97L1.615,48.1l9.444-3.019A24.565,24.565,0,1,0,24.575,0Z" fill="#4caf50"/>
  <path id="Path_77" data-name="Path 77" d="M135.841,140.546c-.593,1.674-2.945,3.062-4.822,3.467-1.284.273-2.961.491-8.605-1.849-7.22-2.991-11.87-10.328-12.232-10.8-.347-.476-2.918-3.885-2.918-7.411a7.844,7.844,0,0,1,2.512-5.98,3.57,3.57,0,0,1,2.512-.881c.3,0,.577.015.823.028.722.031,1.084.074,1.56,1.213.593,1.428,2.036,4.954,2.208,5.316a1.462,1.462,0,0,1,.1,1.33,4.246,4.246,0,0,1-.8,1.127c-.362.418-.706.737-1.069,1.185-.332.39-.706.808-.289,1.529a21.807,21.807,0,0,0,3.986,4.954,18.063,18.063,0,0,0,5.762,3.553,1.553,1.553,0,0,0,1.732-.273,29.728,29.728,0,0,0,1.919-2.543,1.371,1.371,0,0,1,1.763-.534c.663.23,4.174,1.966,4.9,2.325s1.2.534,1.373.838A6.119,6.119,0,0,1,135.841,140.546Z" transform="translate(-96.969 -105.851)" fill="#fafafa"/>
</svg>
